<?xml version="1.0" encoding="UTF-8"?>
<svg id="Layer_2" data-name="Layer 2" xmlns="http://www.w3.org/2000/svg" viewBox="0 0 545.07 226.84">
  <g id="Layer_1-2" data-name="Layer 1">
    <g>
      <path d="M11.51,104.37h3.84c4.98,0,9.42-.67,13.33-2.02,3.91-1.35,7.26-3.27,10.06-5.76,2.8-2.49,4.98-5.45,6.54-8.87,1.56-3.42,2.44-7.21,2.65-11.36.35.83,1.36,1.45,3.06,1.87,1.69.42,3.54.62,5.55.62,7.05.14,12.78-1.11,17.17-3.73,4.39-2.63,7.61-6.4,9.65-11.31,2.04-4.91,3.06-10.75,3.06-17.53,0-1.18-.12-2.73-.36-4.67-.24-1.94-.52-3.84-.83-5.71-.31-1.87-.61-3.28-.88-4.25-.28-1.18-.78-2.02-1.5-2.54-.73-.52-1.68-.67-2.85-.47l-11.2,2.18c-.76.14-1.47.43-2.13.88-.66.45-.88,1.37-.67,2.75.21,1.52.47,3.36.78,5.5.31,2.14.47,4.19.47,6.12,0,3.32-.61,5.64-1.82,6.95-1.21,1.31-3.58,1.97-7.11,1.97h-2.07c-1.87,0-3.34-.14-4.41-.42-1.07-.28-1.9-.78-2.49-1.5-.59-.73-1.06-1.78-1.4-3.16l-2.7-11c-.21-.83-.43-1.62-.67-2.39-.24-.76-.64-1.35-1.19-1.76-.55-.42-1.49-.45-2.8-.1l-10.79,2.59c-1.73.42-2.89.97-3.48,1.66-.59.69-.74,1.8-.47,3.32l2.28,10.58c.42,2.01.86,4.27,1.35,6.8.48,2.53.73,5.03.73,7.52,0,5.26-1.26,9.27-3.79,12.03-2.53,2.77-6.86,4.15-13.02,4.15h-1.35c-1.31,0-2.37.28-3.16.83-.79.55-1.19,1.42-1.19,2.59v13.8c0,1.11.29,2.02.88,2.75.59.73,1.57,1.09,2.96,1.09Z"/>
      <path d="M28.01,27.18c.55.55,1.26.85,2.13.88.86.04,1.57-.22,2.13-.78l6.74-6.74c1.31-1.31,1.21-2.77-.31-4.36l-6.54-6.74c-.55-.62-1.24-.92-2.07-.88-.83.04-1.52.33-2.07.88l-6.74,6.74c-.62.62-.93,1.33-.93,2.13s.31,1.5.93,2.13l6.74,6.74Z"/>
      <path d="M76.77,84.45c-.48-.55-1.07-.83-1.76-.83s-1.31.28-1.87.83l-5.54,5.45-5.35-5.45c-.48-.55-1.11-.83-1.87-.83s-1.42.28-1.97.83l-6.02,6.02c-.55.55-.81,1.19-.78,1.92.04.73.3,1.36.78,1.92l6.02,6.02c.55.48,1.21.74,1.97.78.76.03,1.38-.19,1.87-.67l5.45-5.45,5.44,5.35c.55.48,1.19.74,1.92.78.73.03,1.33-.19,1.82-.67l6.02-6.02c.55-.55.81-1.21.78-1.97-.04-.76-.33-1.42-.88-1.97l-6.02-6.02Z"/>
      <path d="M85.9,100.53c0,1.11.29,2.02.88,2.75.59.73,1.57,1.09,2.96,1.09h3.84c4.98,0,9.42-.67,13.33-2.02,3.91-1.35,7.26-3.27,10.06-5.76,2.8-2.49,4.98-5.45,6.54-8.87,1.56-3.42,2.44-7.21,2.65-11.36.35.83,1.36,1.45,3.06,1.87,1.69.42,3.54.62,5.55.62,4.49,0,8.37-.05,11.62-.16,3.25-.1,6.1-.38,8.56-.83,2.45-.45,4.75-1.14,6.9-2.07,2.14-.93,4.39-2.19,6.74-3.79,1.8,1.24,3.67,2.3,5.6,3.16,1.94.87,3.96,1.57,6.07,2.13,2.11.55,4.31.95,6.59,1.19,2.28.24,4.63.36,7.05.36h9.54c.13,0,.24-.02.36-.02.06,0,.1.02.16.02,5.95.07,10.74-.62,14.37-2.08,3.63-1.45,6.4-3.6,8.3-6.43,1.9-2.83,3.18-6.29,3.84-10.37.66-4.08.99-8.65.99-13.69V2.39c0-.69-.21-1.26-.62-1.71-.42-.45-1-.67-1.76-.67h-13.9c-.69,0-1.26.23-1.71.67s-.67,1.02-.67,1.71v43.57c0,2.28-.21,4.08-.62,5.39-.42,1.31-1.16,2.25-2.23,2.8-1.07.55-2.54.83-4.41.83-.05,0-.1,0-.15.01-.05,0-.1-.01-.16-.01h-15.56c2.42-2.35,4.31-4.31,5.65-5.86s2.28-3.08,2.8-4.56c.52-1.49.78-3.23.78-5.24,0-5.12-2.21-9.01-6.64-11.67-4.43-2.66-11.79-3.99-22.1-3.99-4.01,0-8.13.36-12.35,1.09-4.22.73-8.37,1.89-12.45,3.48-1.24.48-2.18,1.16-2.8,2.02-.62.87-.93,2.09-.93,3.68l-.1,8.82c0,1.45.21,2.59.62,3.42.42.83,1.14,1.73,2.18,2.7l6.54,6.12h-16.39c-1.87,0-3.34-.14-4.41-.42-1.07-.28-1.9-.78-2.49-1.5-.59-.73-1.06-1.78-1.4-3.16l-2.7-11c-.21-.83-.43-1.62-.67-2.39-.24-.76-.64-1.35-1.19-1.76-.55-.42-1.49-.45-2.8-.1l-10.79,2.59c-1.73.42-2.89.97-3.48,1.66-.59.69-.74,1.8-.47,3.32l2.28,10.58c.42,2.01.86,4.27,1.35,6.8.48,2.53.73,5.03.73,7.52,0,5.26-1.26,9.27-3.79,12.03-2.53,2.77-6.86,4.15-13.02,4.15h-1.35c-1.31,0-2.37.28-3.16.83-.79.55-1.19,1.42-1.19,2.59v13.8ZM165.26,41.65c1.73-.24,3.46-.36,5.19-.36,2.49,0,4.32.19,5.5.57,1.18.38,1.94.87,2.28,1.45.35.59.48,1.19.42,1.82-.07.9-.74,1.94-2.02,3.11-1.28,1.18-3.23,2.59-5.86,4.25l-11.1-9.75c2-.48,3.87-.85,5.6-1.09Z"/>
      <path d="M106.23,27.18c.55.55,1.26.85,2.13.88.86.04,1.57-.22,2.13-.78l6.74-6.74c1.31-1.31,1.21-2.77-.31-4.36l-6.54-6.74c-.55-.62-1.24-.92-2.07-.88-.83.04-1.52.33-2.07.88l-6.74,6.74c-.62.62-.93,1.33-.93,2.13s.31,1.5.93,2.13l6.74,6.74Z"/>
      <path d="M248.88,78.33h13.9c.76,0,1.35-.23,1.76-.67.42-.45.62-1.02.62-1.71V2.39c0-.69-.21-1.26-.62-1.71-.42-.45-1-.67-1.76-.67h-13.9c-.69,0-1.26.23-1.71.67s-.67,1.02-.67,1.71v73.55c0,.69.22,1.26.67,1.71.45.45,1.02.67,1.71.67Z"/>
      <path d="M300.44,78.85h3.11c5.46,0,9.53-.97,12.19-2.9,2.66-1.94,4.41-4.74,5.24-8.4,2.42,4.36,5.48,7.33,9.18,8.92,3.7,1.59,7.35,2.39,10.94,2.39,3.11,0,6.02-.64,8.71-1.92,2.7-1.28,4.88-3.75,6.54-7.42,1.87,3.39,4.39,5.79,7.57,7.21,3.18,1.42,6.64,2.13,10.38,2.13h9.54c4.7,0,8.96-.04,12.76-.1,3.8-.07,7.37-.23,10.69-.47,3.32-.24,6.5-.57,9.54-.99l10.48-1.56c1.31-.21,2.16-.66,2.54-1.35.38-.69.64-1.59.78-2.7l2.07-17.43c.14-.97-.02-1.59-.47-1.87-.45-.28-1.09-.35-1.92-.21l-11.2,1.56c-1.8.28-3.48.43-5.03.47-1.56.04-2.85.05-3.89.05-2.28,0-4.27-.22-5.97-.67-1.7-.45-2.99-1.11-3.89-1.97-.9-.86-1.35-1.88-1.35-3.06,0-1.66.85-3.01,2.54-4.05,1.69-1.04,3.96-1.56,6.79-1.56,1.94,0,3.98.23,6.12.67,2.14.45,3.8.95,4.98,1.5,1.18.35,2.04.33,2.59-.05.55-.38,1-1.33,1.35-2.85l3.22-13.8c.21-.83.1-1.54-.31-2.13-.42-.59-1-1.02-1.76-1.3-2.91-1.17-5.76-2.07-8.56-2.7-2.8-.62-5.52-.93-8.14-.93-4.98,0-9.48,1.02-13.49,3.06-4.01,2.04-7.18,4.98-9.49,8.82-2.32,3.84-3.48,8.49-3.48,13.95,0,2.7.29,4.91.88,6.64.14.4.28.78.43,1.14h-7.12c-2.97,0-5.05-.59-6.22-1.76-1.18-1.18-1.76-3.25-1.76-6.22v-9.34c0-2.28-1.04-3.42-3.11-3.42h-12.45c-2.07,0-3.11,1.14-3.11,3.42v9.34c0,2.84-.4,4.88-1.19,6.12-.8,1.24-2.4,1.87-4.82,1.87h-.21c-1.87,0-3.37-.24-4.51-.73-1.14-.48-2.18-1.5-3.11-3.06s-2.06-3.96-3.37-7.21l-9.65-23.65c-.55-1.45-1.3-2.49-2.23-3.11-.93-.62-2.09-.66-3.47-.1l-11.31,4.46c-1.52.62-2.35,1.52-2.49,2.7-.14,1.18.14,2.66.83,4.46l7.88,20.13c.35.76.59,1.37.73,1.82.14.45.21.95.21,1.5,0,.97-.36,1.68-1.09,2.13-.73.45-1.68.67-2.85.67h-8.4c-1.52,0-2.92-.26-4.2-.78-1.28-.52-1.92-1.61-1.92-3.27v-1.87c0-1.18-.26-1.97-.78-2.39s-1.26-.62-2.23-.62h-9.96c-1.94,0-3.18.31-3.73.93-.55.62-.87,1.66-.93,3.11v1.87c0,8.44,1.88,15.03,5.65,19.76,3.77,4.74,10.01,7.11,18.73,7.11Z"/>
      <path d="M357.08,83.51c-.76,0-1.42.28-1.97.83l-6.33,6.33c-.48.62-.73,1.31-.73,2.07s.24,1.42.73,1.97l6.33,6.33c.55.48,1.23.74,2.02.78.79.03,1.47-.19,2.02-.67l6.33-6.33c.55-.62.81-1.31.78-2.08-.04-.76-.36-1.45-.99-2.07l-6.22-6.33c-.55-.55-1.21-.83-1.97-.83Z"/>
      <path d="M460.83,77.81h18.05c.76,0,1.42-.28,1.97-.83s.83-1.21.83-1.97v-18.05c0-.76-.28-1.42-.83-1.97-.55-.55-1.21-.83-1.97-.83h-18.05c-.76,0-1.42.28-1.97.83s-.83,1.21-.83,1.97v18.05c0,.76.28,1.42.83,1.97.55.55,1.21.83,1.97.83Z"/>
      <path d="M543.93,43.78c-.76-2.7-1.96-5.39-3.58-8.09-1.63-2.7-3.75-5.6-6.38-8.71l-7.88-9.54c-1.04-1.24-2.06-1.87-3.06-1.87s-2.06.45-3.16,1.35l-10.27,8.2c-.9.76-1.3,1.7-1.19,2.8.1,1.11.64,2.28,1.61,3.53l13.69,17.12c.55.69.97,1.3,1.25,1.82.28.52.41,1.06.41,1.61,0,.9-.38,1.63-1.14,2.18-.76.55-1.73.83-2.91.83h-9.44c-1.52,0-2.75-.29-3.68-.88-.93-.59-1.4-1.75-1.4-3.48v-1.45c0-1.11-.19-1.9-.57-2.39-.38-.48-1.02-.73-1.92-.73h-10.48c-1.87,0-3.11.28-3.74.83-.62.55-.93,1.45-.93,2.7v3.84c0,4.77.86,9.08,2.59,12.92,1.73,3.84,4.46,6.88,8.2,9.13,3.74,2.25,8.61,3.37,14.63,3.37h3.11c5.88,0,10.86-1.11,14.94-3.32,4.08-2.21,7.17-5.29,9.29-9.23,2.11-3.94,3.16-8.51,3.16-13.69,0-3.18-.38-6.12-1.14-8.82Z"/>
      <path d="M494.86,209.35c-.55-.55-1.21-.83-1.97-.83s-1.42.28-1.97.83l-6.33,6.33c-.48.62-.73,1.31-.73,2.08s.24,1.42.73,1.97l6.33,6.33c.55.48,1.23.74,2.02.78.79.03,1.47-.19,2.02-.67l6.33-6.33c.55-.62.81-1.31.78-2.07-.04-.76-.36-1.45-.99-2.08l-6.22-6.33Z"/>
      <path d="M509.28,169.1l-2.39-12.24c-.55-2.91-2.25-4.05-5.08-3.42l-11.41,2.39c-1.25.28-2.14.76-2.7,1.45-.55.69-.69,1.83-.42,3.42l1.66,8.3c.14.76.26,1.5.36,2.23.1.73.16,1.37.16,1.92,0,2.28-.5,3.91-1.5,4.88-1,.97-2.44,1.45-4.3,1.45H78.85c-2.21,0-4.01-.22-5.39-.67-1.38-.45-2.39-1.25-3.01-2.39-.62-1.14-.93-2.71-.93-4.72v-44.82c0-.69-.21-1.26-.62-1.71-.42-.45-1-.67-1.76-.67h-14.94c-.69,0-1.26.23-1.71.67s-.67,1.02-.67,1.71v57.89c0,3.67-.73,6.71-2.18,9.13-1.45,2.42-3.3,4.2-5.55,5.34-2.25,1.14-4.65,1.71-7.21,1.71h-2.07c-2.77,0-5.29-.48-7.57-1.45-2.28-.97-4.1-2.47-5.45-4.51s-2.02-4.65-2.02-7.83c0-1.66.21-3.46.62-5.39.42-1.94,1.07-3.94,1.97-6.02.35-.97.35-1.71,0-2.23-.35-.52-1.25-.95-2.7-1.3l-8.2-2.18c-1.31-.34-2.39-.21-3.22.42-.83.62-1.52,1.63-2.07,3.01-1.38,3.25-2.42,6.47-3.11,9.65-.69,3.18-1.04,6.22-1.04,9.13,0,6.57,1.3,12.33,3.89,17.27,2.59,4.94,6.22,8.78,10.89,11.52,4.67,2.73,10.04,4.1,16.13,4.1h2.07c4.01,0,8.06-.93,12.14-2.8,4.08-1.87,7.73-4.65,10.94-8.35,3.22-3.7,5.51-8.32,6.9-13.85,1.87,1.18,4.13,2.01,6.8,2.49,2.66.48,5.17.73,7.52.73h217.86s0,0,0,0c0,0,0,0,0,0h192.65c7.47,0,13.09-2.25,16.86-6.74,3.77-4.5,5.65-10.37,5.65-17.64,0-1.59-.09-3.2-.26-4.82-.17-1.62-.43-3.3-.78-5.03Z"/>
      <path d="M541.39,118.89c-.31-.21-.85-.24-1.61-.1l-3.53.62c-2.21.42-4.12.33-5.71-.26-1.59-.59-2.39-1.5-2.39-2.75,0-.76.31-1.4.93-1.92.62-.52,1.62-.78,3.01-.78.9,0,1.82.09,2.75.26.93.17,1.82.47,2.65.88.83.28,1.25-.03,1.25-.93v-4.25c0-.76-.45-1.38-1.35-1.87-.55-.35-1.28-.62-2.18-.83-.9-.21-1.83-.31-2.8-.31-3.53,0-6.21,1-8.04,3.01-1.83,2.01-2.75,4.53-2.75,7.57,0,1.11.16,2.11.47,3.01.31.9.71,1.66,1.19,2.28l-2.39.73c-.49.14-.88.36-1.19.67-.31.31-.47.81-.47,1.5v4.36c0,.48.16.9.47,1.24.31.35.81.45,1.5.31l19.19-4.67c.97-.28,1.45-.97,1.45-2.08v-4.36c0-.69-.16-1.14-.47-1.35Z"/>
      <path d="M536.77,133.73l-11.1,2.8c-1.73.42-2.91.95-3.53,1.61-.62.66-.93,1.85-.93,3.58v58.72c0,.69.22,1.26.67,1.71.45.45,1.02.67,1.71.67h13.9c.76,0,1.35-.23,1.76-.67.42-.45.62-1.02.62-1.71v-64.32c0-.69-.21-1.35-.62-1.97s-1.25-.76-2.49-.42Z"/>
    </g>
  </g>
</svg>