<?xml version="1.0" encoding="UTF-8"?>
<svg id="Layer_2" data-name="Layer 2" xmlns="http://www.w3.org/2000/svg" viewBox="0 0 492.18 190.22">
  <g id="Layer_2-2" data-name="Layer 2">
    <g>
      <path d="M3.81,121.1c-1.04,0-1.93-.37-2.68-1.12-.75-.75-1.12-1.64-1.12-2.68,0-.46.06-.87.17-1.21L38.75,5.71c.35-1.27,1.15-2.54,2.42-3.81s3.05-1.9,5.36-1.9h37.54c2.31,0,4.09.63,5.36,1.9,1.27,1.27,2.08,2.54,2.42,3.81l38.58,110.37c.11.35.17.75.17,1.21,0,1.04-.38,1.93-1.12,2.68s-1.64,1.12-2.68,1.12h-32c-2.19,0-3.78-.49-4.76-1.47-.98-.98-1.64-1.93-1.99-2.85l-4.15-11.42h-37.2l-4.15,11.42c-.35.92-.98,1.88-1.9,2.85-.92.98-2.54,1.47-4.84,1.47H3.81ZM55.53,71.62h19.55l-9.86-32.18-9.69,32.18Z"/>
      <path d="M144.8,121.1c-1.27,0-2.37-.46-3.29-1.38-.92-.92-1.38-2.02-1.38-3.29V4.67c0-1.27.46-2.36,1.38-3.29.92-.92,2.02-1.38,3.29-1.38h57.44c11.07,0,20.12,1.36,27.16,4.07,7.03,2.71,12.25,6.75,15.66,12.11,3.4,5.36,5.1,12.08,5.1,20.16,0,3.69-.78,7.01-2.34,9.95-1.56,2.94-3.4,5.39-5.54,7.35-2.14,1.96-4.12,3.4-5.97,4.33,4.38,1.85,8.22,5.05,11.5,9.6,3.29,4.56,4.93,9.72,4.93,15.48,0,8.65-1.9,15.77-5.71,21.37-3.81,5.6-9.31,9.77-16.52,12.54-7.21,2.77-16.06,4.15-26.56,4.15h-59.17ZM183.38,45.5h14.53c2.54,0,4.35-.84,5.45-2.51,1.09-1.67,1.64-3.43,1.64-5.28s-.55-3.63-1.64-5.36c-1.1-1.73-2.91-2.59-5.45-2.59h-14.53v15.74ZM183.38,91.34h16.09c2.88,0,4.93-.95,6.14-2.85s1.82-3.78,1.82-5.62c0-2.08-.66-4.01-1.99-5.79-1.33-1.79-3.32-2.68-5.97-2.68h-16.09v16.95Z"/>
      <path d="M259.33,121.1c-1.04,0-1.93-.37-2.68-1.12-.75-.75-1.12-1.64-1.12-2.68,0-.46.06-.87.17-1.21L294.27,5.71c.35-1.27,1.15-2.54,2.42-3.81s3.05-1.9,5.36-1.9h37.54c2.31,0,4.09.63,5.36,1.9,1.27,1.27,2.08,2.54,2.42,3.81l38.58,110.37c.11.35.17.75.17,1.21,0,1.04-.38,1.93-1.12,2.68s-1.64,1.12-2.68,1.12h-32c-2.19,0-3.78-.49-4.76-1.47-.98-.98-1.64-1.93-1.99-2.85l-4.15-11.42h-37.2l-4.15,11.42c-.35.92-.98,1.88-1.9,2.85-.92.98-2.54,1.47-4.84,1.47h-32ZM311.05,71.62h19.55l-9.86-32.18-9.69,32.18Z"/>
      <path d="M400.32,121.1c-1.27,0-2.37-.46-3.29-1.38-.92-.92-1.38-2.02-1.38-3.29V4.67c0-1.27.46-2.36,1.38-3.29.92-.92,2.02-1.38,3.29-1.38h34.6c1.27,0,2.36.46,3.29,1.38.92.92,1.38,2.02,1.38,3.29v80.96h47.92c1.27,0,2.36.46,3.29,1.38.92.92,1.38,2.02,1.38,3.29v26.12c0,1.27-.46,2.37-1.38,3.29-.92.92-2.02,1.38-3.29,1.38h-87.19Z"/>
      <path d="M44.59,189.43c-.47,0-.88-.17-1.22-.51s-.51-.75-.51-1.22c0-.21.03-.39.08-.55l17.53-50.16c.16-.58.52-1.15,1.1-1.73s1.39-.86,2.44-.86h17.06c1.05,0,1.86.29,2.44.86.58.58.94,1.15,1.1,1.73l17.53,50.16c.05.16.08.34.08.55,0,.47-.17.88-.51,1.22s-.75.51-1.22.51h-14.54c-1,0-1.72-.22-2.16-.67-.45-.45-.75-.88-.9-1.3l-1.89-5.19h-16.9l-1.89,5.19c-.16.42-.45.85-.87,1.3-.42.45-1.15.67-2.2.67h-14.54ZM68.1,166.95h8.88l-4.48-14.62-4.4,14.62Z"/>
      <path d="M135,190.22c-2.73,0-5.03-.43-6.92-1.3-1.89-.87-3.46-2-4.72-3.42v1.81c0,.58-.21,1.07-.63,1.49s-.92.63-1.49.63h-13.36c-.58,0-1.08-.21-1.49-.63-.42-.42-.63-.92-.63-1.49v-51.57c0-.58.21-1.07.63-1.49s.92-.63,1.49-.63h14.54c.58,0,1.07.21,1.49.63.42.42.63.92.63,1.49v15.72c1.26-1.15,2.76-2.06,4.52-2.71s3.73-.98,5.94-.98,4.44.37,6.41,1.1c1.96.73,3.69,1.83,5.19,3.3,1.49,1.47,2.68,3.34,3.58,5.62.89,2.28,1.39,4.97,1.49,8.06.05,1.15.08,2.18.08,3.07s-.03,1.94-.08,3.14c-.16,3.3-.68,6.11-1.57,8.41-.89,2.31-2.08,4.18-3.58,5.62-1.49,1.44-3.21,2.49-5.15,3.14-1.94.65-4.06.98-6.37.98ZM128.47,176.15c.99,0,1.75-.18,2.28-.55.52-.37.9-.89,1.14-1.57.24-.68.41-1.49.51-2.44.16-1.73.16-3.46,0-5.19-.11-.94-.28-1.76-.51-2.44-.24-.68-.62-1.21-1.14-1.57-.52-.37-1.29-.55-2.28-.55-.89,0-1.61.16-2.16.47-.55.31-.97.76-1.26,1.34-.29.58-.46,1.29-.51,2.12-.05,1.15-.08,2.11-.08,2.87s.03,1.74.08,2.95c.05.94.2,1.76.43,2.44.24.68.64,1.21,1.22,1.57.58.37,1.34.55,2.28.55Z"/>
      <path d="M173.36,190.22c-2.25,0-4.36-.33-6.33-.98-1.97-.66-3.7-1.7-5.19-3.14-1.49-1.44-2.69-3.31-3.58-5.62-.89-2.31-1.42-5.11-1.57-8.41-.05-1.21-.08-2.25-.08-3.14s.03-1.91.08-3.07c.1-3.09.6-5.78,1.49-8.06.89-2.28,2.08-4.15,3.58-5.62,1.49-1.47,3.24-2.57,5.23-3.3,1.99-.73,4.11-1.1,6.37-1.1s4.18.33,5.93.98,3.26,1.56,4.52,2.71v-15.72c0-.58.21-1.07.63-1.49s.92-.63,1.49-.63h14.54c.58,0,1.07.21,1.49.63.42.42.63.92.63,1.49v51.57c0,.58-.21,1.07-.63,1.49s-.92.63-1.49.63h-13.36c-.58,0-1.08-.21-1.49-.63-.42-.42-.63-.92-.63-1.49v-1.81c-1.26,1.42-2.83,2.55-4.72,3.42-1.89.86-4.19,1.3-6.92,1.3ZM179.89,176.15c1,0,1.77-.18,2.32-.55.55-.37.94-.89,1.18-1.57.24-.68.38-1.49.43-2.44.1-1.21.16-2.19.16-2.95s-.05-1.72-.16-2.87c-.05-.84-.22-1.54-.51-2.12-.29-.58-.71-1.02-1.26-1.34-.55-.31-1.27-.47-2.16-.47-.94,0-1.69.18-2.24.55-.55.37-.94.89-1.18,1.57-.24.68-.41,1.49-.51,2.44-.16,1.73-.16,3.46,0,5.19.1.94.28,1.76.51,2.44.24.68.63,1.21,1.18,1.57.55.37,1.3.55,2.24.55Z"/>
      <path d="M224.54,190.22c-2.62,0-5.1-.63-7.43-1.89-2.33-1.26-4.22-3.2-5.66-5.82-1.44-2.62-2.16-6-2.16-10.14v-21.7c0-.58.21-1.07.63-1.49s.92-.63,1.49-.63h15.02c.58,0,1.07.21,1.49.63.42.42.63.92.63,1.49v21.15c0,2.88,1.31,4.32,3.93,4.32,1.26,0,2.23-.37,2.91-1.1.68-.73,1.02-1.81,1.02-3.22v-21.15c0-.58.21-1.07.63-1.49s.92-.63,1.49-.63h14.94c.58,0,1.07.21,1.49.63.42.42.63.92.63,1.49v36.63c0,.58-.21,1.07-.63,1.49s-.92.63-1.49.63h-13.76c-.58,0-1.08-.21-1.49-.63-.42-.42-.63-.92-.63-1.49v-2.59c-1.31,1.94-3.12,3.34-5.42,4.21-2.31.86-4.85,1.3-7.62,1.3Z"/>
      <path d="M264.79,189.43c-.58,0-1.08-.21-1.49-.63-.42-.42-.63-.92-.63-1.49v-51.57c0-.58.21-1.07.63-1.49s.92-.63,1.49-.63h14.07c.58,0,1.07.21,1.49.63.42.42.63.92.63,1.49v51.57c0,.58-.21,1.07-.63,1.49s-.92.63-1.49.63h-14.07Z"/>
      <path d="M301.11,190.22c-2.99,0-5.63-.55-7.94-1.65-2.31-1.1-4.1-2.59-5.38-4.48-1.29-1.89-1.93-4.01-1.93-6.37,0-3.83,1.56-6.83,4.68-9,3.12-2.17,7.3-3.71,12.54-4.6l8.33-1.34v-.08c0-1.36-.12-2.36-.35-2.99-.24-.63-.9-.94-2-.94-.73,0-1.32.15-1.77.43-.45.29-.93.7-1.45,1.22-.58.58-1.31.86-2.2.86h-13.36c-.52,0-.96-.16-1.3-.47s-.49-.73-.43-1.26c.05-.99.47-2.16,1.26-3.5.79-1.34,2-2.63,3.66-3.89,1.65-1.26,3.77-2.31,6.37-3.14,2.59-.84,5.73-1.26,9.39-1.26s6.67.38,9.32,1.14c2.65.76,4.83,1.86,6.56,3.3s3.03,3.22,3.89,5.35c.87,2.12,1.3,4.52,1.3,7.19v22.56c0,.58-.21,1.07-.63,1.49s-.92.63-1.49.63h-13.76c-.58,0-1.08-.21-1.49-.63-.42-.42-.63-.92-.63-1.49v-2.2c-.73,1.05-1.66,1.95-2.79,2.71s-2.4,1.35-3.81,1.77-2.94.63-4.56.63ZM306.53,178.59c1.05,0,1.95-.21,2.71-.63.76-.42,1.35-1.09,1.77-2,.42-.92.63-2.06.63-3.42v-.08l-4.64,1.02c-1.36.31-2.28.73-2.75,1.26-.47.52-.71,1.07-.71,1.65,0,.37.12.72.35,1.06.24.34.58.62,1.02.83.45.21.98.31,1.61.31Z"/>
      <path d="M338.37,189.43c-.58,0-1.07-.21-1.49-.63-.42-.42-.63-.92-.63-1.49v-9.04c0-.63.12-1.17.35-1.61.24-.44.54-.83.9-1.14l15.64-13.44h-14.23c-.58,0-1.08-.21-1.49-.63-.42-.42-.63-.92-.63-1.49v-9.28c0-.58.21-1.07.63-1.49s.92-.63,1.49-.63h34.75c.58,0,1.07.21,1.49.63.42.42.63.92.63,1.49v9.91c0,.47-.09.89-.28,1.26-.18.37-.46.71-.83,1.02l-14.94,13.05h15.57c.58,0,1.07.21,1.49.63.42.42.63.92.63,1.49v9.28c0,.58-.21,1.07-.63,1.49s-.92.63-1.49.63h-36.95Z"/>
      <path d="M385.46,189.43c-.58,0-1.08-.21-1.49-.63-.42-.42-.63-.92-.63-1.49v-36.63c0-.58.21-1.07.63-1.49s.92-.63,1.49-.63h14.07c.58,0,1.07.21,1.49.63.42.42.63.92.63,1.49v36.63c0,.58-.21,1.07-.63,1.49s-.92.63-1.49.63h-14.07ZM385.85,144.23c-.58,0-1.07-.21-1.49-.63-.42-.42-.63-.92-.63-1.49v-9.51c0-.58.21-1.07.63-1.49s.92-.63,1.49-.63h13.29c.58,0,1.07.21,1.49.63.42.42.63.92.63,1.49v9.51c0,.58-.21,1.07-.63,1.49s-.92.63-1.49.63h-13.29Z"/>
      <path d="M410.14,189.43c-.58,0-1.07-.21-1.49-.63-.42-.42-.63-.92-.63-1.49v-9.04c0-.63.12-1.17.35-1.61.24-.44.54-.83.9-1.14l15.64-13.44h-14.23c-.58,0-1.08-.21-1.49-.63-.42-.42-.63-.92-.63-1.49v-9.28c0-.58.21-1.07.63-1.49s.92-.63,1.49-.63h34.75c.58,0,1.07.21,1.49.63.42.42.63.92.63,1.49v9.91c0,.47-.09.89-.28,1.26-.18.37-.46.71-.83,1.02l-14.94,13.05h15.57c.58,0,1.07.21,1.49.63.42.42.63.92.63,1.49v9.28c0,.58-.21,1.07-.63,1.49s-.92.63-1.49.63h-36.95Z"/>
    </g>
  </g>
</svg>