<?xml version="1.0" encoding="UTF-8"?>
<svg id="Layer_1" data-name="Layer 1" xmlns="http://www.w3.org/2000/svg" viewBox="0 0 218.24 528.27">
  <defs>
    <style>
      .cls-1 {
        fill: #d69622;
      }

      .cls-2 {
        fill: #9c2c25;
      }
    </style>
  </defs>
  <g>
    <path class="cls-2" d="M108.91,159.96c2.33,5.19,3.8,12.77,3.8,21.23,0,2.03-.08,4.02-.25,5.93v51.7l-16,.67v7.42l22.79-.94v-51.7c.14-1.92.24-3.89.24-5.92,0-15.1-4.66-27.3-10.59-28.38Z"/>
    <path class="cls-2" d="M69.9,196.42c.11-1.91.18-3.9.18-5.92,0-15.98-3.94-28.73-8.83-28.47-.27.01-.55.08-.81.16,1.75,5.21,2.86,12.73,2.86,21.17,0,2.02-.07,4.01-.2,5.93v51.69l-14.7.57v7.52l21.5-.95v-51.7Z"/>
    <path class="cls-2" d="M58.7,341.31c-9.95,0-19.03-3.49-26.08-9.26,7.33,9.92,19.3,16.4,32.85,16.4,22.29,0,40.37-17.54,40.37-39.15,0-11.99-5.56-22.71-14.3-29.89,4.73,6.4,7.52,14.26,7.52,22.74,0,21.64-18.07,39.15-40.36,39.15h0Z"/>
  </g>
  <path class="cls-1" d="M96.22,0l5.72,83.58.14-.02-.11.22s50.57,18.3,57.14,71.03c6.07,55.95.24,74.83-34.05,93.99,0,0,17.87,0,36.77-6.11l13.63,28.53v139.39h-31.49v-23.9l-17.16-3.43v3.12l.12.04v24.17h-26.16v-23.89l-15.17-3.43v3.1l.11.06v24.17h-26.15v-23.9l-15.17-3.43v3.12l.11.04v24.17h-26.16v-23.89l-15.19-3.43v3.1l.12.06v24.17l.41,15.39,214.1-.37.45-150.1c-.02-.45-40.45-45.61-40.45-45.88,0,0-1.66-50.12-1.36-53.46,6.98-72.01-57.91-99.77-70.04-109.36L96.22,0Z"/>
  <polygon class="cls-2" points="60.75 270.77 62.67 309.54 13.58 316.01 69.34 317.18 60.75 270.77"/>
  <g>
    <path class="cls-2" d="M0,502.68l.15-3.25c.62-.19,1.73-.41,3.32-.72,2.54-.46,4.09-.9,4.63-1.31.54-.36,1.21-1.3,2.01-2.78l9.94-25.32,11.66-29.76h5.49l.44.86,8.53,19.74c1.92,4.18,3.66,8.25,5.19,12.2,1.53,3.93,2.85,7.16,3.96,9.65.65,1.49,1.56,3.75,2.7,6.74.59,1.64,1.49,3.67,2.7,6.12.66,1.37,1.16,2.14,1.48,2.36.59.49,1.56.8,2.89.96s2.77.53,4.31,1.09c.16,1.08.25,1.86.25,2.37,0,.23-.01.59-.05,1.04-2.43,0-5.1-.1-8.03-.35-2.92-.23-5.54-.35-7.87-.35-2.59,0-4.47.03-5.61.1l-8.37.4-2.42.07c0-1.08.05-2.15.15-3.14l5.46-1.14c1.64-.41,2.6-.73,2.86-.95.32-.33.49-.69.49-1.09,0-.43-.08-.85-.25-1.31l-1.95-4.66-3.85-9.37h-18.91c-.69,1.53-2.13,5.25-4.32,11.18-.62,1.67-.94,2.82-.94,3.43,0,.84.23,1.43.7,1.77.76.6,2.2,1.03,4.35,1.28.3.06,1.46.25,3.51.53.03,1.09.05,1.86.05,2.26,0,.35-.03.7-.1,1.07-2.04,0-6.92-.22-14.64-.67l-2.04.35c-2.45.42-4.79.59-7.01.59h-.87v-.02ZM23.32,475.74c7.69.12,12.22.15,13.6.15l1.23-.04c-.98-2.85-2.26-6.16-3.84-9.95-1.57-3.78-2.86-6.66-3.85-8.64l-7.14,18.48Z"/>
    <path class="cls-2" d="M67.52,444.78l-.15-3.82c.59-.03,1.2-.04,1.83-.04,1.66,0,3.38.04,5.2.13,4.36.22,6.91.33,7.68.33,2.64,0,5.22-.05,7.74-.15,2.53-.09,4.77-.15,6.73-.18,1.96-.03,3.3-.06,3.98-.1l-.05.57.11,2.79v.39c-1.86.26-3.76.36-5.74.36-1.86,0-3.07.37-3.67,1.07-.4.47-.6,2.35-.6,5.7,0,1.03.02,1.84.07,2.46l.08,1.73-.14,4.5.35,3.83-.2,8.28.65,11.99c.17,3.49.95,6.37,2.37,8.66,1.06,1.69,2.54,3.01,4.45,3.96,2.76,1.34,5.48,2.01,8.15,2.01,3.17,0,6.11-.39,8.84-1.19,1.61-.44,3.13-1.18,4.57-2.18,1.42-1,2.44-1.92,3-2.75,1.17-1.75,2.01-3.39,2.46-4.93.62-2.12.94-5.38.94-9.8,0-7.73-.41-16.43-1.28-26.11l-.2-2.53c-.1-1.87-.45-3.13-1.08-3.78-1.06-.98-2.24-1.48-3.57-1.48l-4.64.12-.69-.18.14-3.66h3.91l9.45.43c3.17,0,6.19-.14,9.05-.43l.82.11c.19,1.04.3,1.77.3,2.17,0,.36-.06.79-.19,1.3-1.22.32-2.5.51-3.86.57-2.19.3-3.42.52-3.64.71-.47.39-.69.99-.69,1.78,0,.57.05,1.4.15,2.49.09.81.14,2.2.14,4.17,0,1.12.02,2,.02,2.63.01.65.04,1.3.08,1.96.1,2.32.2,4.64.26,7l.52,9.73c0,6.52-.24,10.88-.69,13.08-.46,2.21-1.08,3.93-1.88,5.22-1.24,1.91-2.96,3.67-5.18,5.31-2.25,1.59-5.05,2.88-8.4,3.81-3.36.94-7.3,1.42-11.79,1.42-5.1,0-9.48-.65-13.13-1.98-3.67-1.32-6.43-3.07-8.29-5.22s-3.13-4.95-3.83-8.4c-.49-2.34-.74-5.72-.74-10.11v-22.81c0-5.38-.27-8.44-.8-9.14-.73-.98-3-1.55-6.82-1.66-.85,0-1.54-.07-2.11-.18h0Z"/>
    <path class="cls-2" d="M144.98,499.77c3.42-1.66,6.41-2.84,8.98-3.54.68-.39,1.1-.91,1.31-1.57.19-.64.31-3.15.31-7.5,0-.59-.12-1.75-.31-3.43v-1.15l.07-10.17-.07-7.19.15-2.1v-1.93c0-.48.07-1.2.24-2.17l-.39-2.09.09-.52c.13-.54.22-1.19.22-1.93,0-3.38-.31-5.89-.9-7.53-1.23-.85-3.2-1.63-5.97-2.32-1.55-.41-2.74-.83-3.57-1.33l.34-2.89c.57-.06,1.15-.1,1.73-.1,2.67,0,5.15.14,7.46.41,2.29.27,5.49.4,9.58.4l5.03-.22c2.47-.03,4.38-.11,5.73-.26.98-.09,1.67-.12,2.08-.12s.89.01,1.42.04c.1.31.14.66.14,1.03,0,.93-.05,1.62-.14,2.07-2,.7-3.93,1.23-5.79,1.54-1.84.31-2.89.61-3.14.84-.43.39-.63.95-.63,1.72v3.68c0,.52.05,1.35.14,2.54.1,1.87.15,3.16.15,3.89,0,.48-.05,1.53-.15,3.17v3.58l-.14,3.4c0,.15.03.39.09.65,2.33-1.94,5.46-4.85,9.38-8.76,1.82-1.84,3.26-3.24,4.34-4.23.41-.39,2.71-2.72,6.9-6.94,1.35-1.79,2.08-2.82,2.16-3.12l-.39-.35c-2.04-.36-3.58-.58-4.61-.64-.68-.05-1.81-.29-3.37-.73-.06-.49-.1-1.41-.1-2.74l.05-.61h2.19c1.04,0,2.43.08,4.17.21,1.73.15,3.05.22,3.98.22l11.91-.19c1.87-.19,3.94-.35,6.22-.52v3.71c-.57.12-1.64.35-3.28.68-3.95,1.23-6.61,2.17-8,2.84-1.39.69-2.78,1.56-4.16,2.64-1.38,1.08-3.95,3.3-7.7,6.65-5.09,4.55-8.13,7.34-9.1,8.39.62.72,1.38,1.53,2.28,2.45l1.65,1.63c.29.32.64.71,1.07,1.2l10.53,11.72,8.73,10.51c.99,1.2,1.66,2.02,2.04,2.44l.79.86c.54.71.95,1.12,1.18,1.26.3.19.96.44,2.03.73.56.12,1.95.69,4.19,1.7.06.53.09.95.09,1.25,0,.37-.06.93-.18,1.68l-5.45-.06c-.62-.08-1.62-.15-3.01-.2l-4.85-.21-1.05.05-6.82-.05c-.65,0-2.49.11-5.48.31-1.6.12-2.66.16-3.18.16-.27,0-.64-.01-1.18-.03-.16-.51-.25-.91-.25-1.2,0-.36.07-.93.2-1.66,1.44-.48,2.92-.88,4.41-1.2,1.11-.19,1.85-.47,2.23-.81.35-.35.53-.75.53-1.16-.03-.29-.1-.52-.19-.73-.3-.75-.8-1.57-1.53-2.46-.27-.29-2.56-2.81-6.91-7.6l-12.33-13.36c-.35,1.12-.52,2.39-.52,3.8,0,1.99.05,3.66.16,5.04.05.28.07,2.33.12,6.16l.3,4.28-.2,4.67c.93.79,2.59,1.53,4.97,2.13,1.37.35,2.63.83,3.75,1.5.1.61.14,1.08.14,1.39,0,.23-.03.63-.09,1.17-1.53.05-2.74.07-3.61.07s-1.7-.01-2.31-.03l-7.01-.31c-.96-.07-1.91-.1-2.82-.1-.96,0-2.18.06-3.61.15h-8.76c-.37-.01-1.91.03-4.69.13v-2.64Z"/>
  </g>
  <rect class="cls-1" x="3.27" y="513.25" width="214.51" height="15.02"/>
</svg>
