<?xml version="1.0" encoding="UTF-8"?>
<svg id="Layer_1" data-name="Layer 1" xmlns="http://www.w3.org/2000/svg" viewBox="0 0 840.03 804.89">
  <defs>
    <style>
      .cls-1 { fill: #84cada; }
      .cls-2 { fill: #bd639e; }
      .cls-3 { fill: #38739d; }
      .cls-4 { fill: #fff; }
      .cls-5 { fill: #99c562; }
      .cls-6 { fill: #595ea5; }
    </style>
  </defs>
  <rect class="cls-5" x="292.59" y="277.06" width="268.53" height="268.53"/>
  <rect class="cls-6" x="12.39" y="277.06" width="268.53" height="268.53"/>
  <rect class="cls-1" x="13.69" width="268.53" height="268.53"/>
  <rect class="cls-2" x="571.49" width="268.53" height="268.53"/>
  <rect class="cls-3" x="292.59" width="268.53" height="268.53"/>
  <rect class="cls-1" x="571.49" y="277.06" width="268.53" height="268.53"/>
  <g>
    <g>
      <rect x="136.64" y="790.36" width="15.53" height="14.53"/>
      <rect x="113.09" y="790.36" width="15.53" height="14.53"/>
      <rect x="322.87" y="703.44" width="15.53" height="14.4"/>
      <rect x="346.41" y="703.44" width="15.53" height="14.4"/>
      <path d="M452.11,755.04c0,8.14-3.01,12.27-8.89,12.27h-28.18c1.38-3.88,2.13-8.02,2.13-12.65v-51.22h-17.66v51.85c0,8.02-3.01,12.02-8.89,12.02h-29.43c1.38-3.88,2.13-8.02,2.13-12.65v-27.3h-17.66v27.93c0,8.02-3.01,12.02-8.89,12.02h-35.94c-4.01,0-7.14-1-9.39-3.13,4.51-2.76,9.27-7.01,14.4-12.9,4.63-5.39,7.76-9.89,9.14-13.28-11.9-9.14-24.8-13.78-38.7-13.78-11.65,0-23.29,3.38-34.69,10.14v14.4c4.88.88,10.02,3.01,15.28,6.26,4.38,2.76,7.64,5.39,9.52,8.02-4.63,2.88-10.14,4.26-16.28,4.26h-44.46c1.38-3.88,2.13-8.02,2.13-12.65v-51.22h-17.66v51.85c0,8.02-3.01,12.02-8.89,12.02h-29.31c1.38-3.88,2-8.02,2-12.65v-27.3h-17.66v27.93c0,8.02-2.88,12.02-8.77,12.02h-10.9c-13.4-.25-18.66-4.76-21.92-19.16-2.88-12.65-13.28-20.79-27.8-20.79H31.18c-18.54,0-31.18,13.02-31.18,33.31v44.21h17.28v-41.45c0-12.65,4.88-19.04,14.65-19.04h8.02c-1.38,3.51-2,7.39-2,11.65,0,17.16,11.15,28.43,28.3,28.43,10.4,0,18.16-3.38,23.55-10.02,6.97,6.61,15.51,9.5,26.18,9.63h0s.75.01.75.01h133.63c5.13,0,10.27-.88,15.53-2.5,4.88-1.63,8.77-3.76,11.77-6.26,5.64,5.89,12.15,8.77,19.41,8.77h149.79c7.39,0,13.15-2.5,17.28-7.64,3.63-4.38,5.51-9.89,5.51-16.53v-56.48h-17.53v51.6ZM67.13,770.32h-1.25c-6.39,0-10.77-5.89-10.77-14.28s4.38-14.4,11.65-14.4,11.52,5.51,11.52,13.9c0,9.89-3.76,14.78-11.15,14.78ZM287.55,748.78c-2.88,2.63-5.64,4.63-8.14,5.76-2.88-3.38-5.51-5.89-7.76-7.51s-5.26-3.38-9.02-5.01c4.88-2.38,9.89-3.51,14.9-3.51s10.4,1.38,15.78,4.13c-1.13,1.88-3.13,3.88-5.76,6.14Z"/>
      <rect x="601.02" y="682.78" width="15.53" height="14.4"/>
      <rect x="613.04" y="703.44" width="15.53" height="14.4"/>
      <rect x="589.37" y="703.44" width="15.65" height="14.4"/>
      <rect x="714.86" y="703.44" width="15.53" height="14.4"/>
      <rect x="691.32" y="703.44" width="15.53" height="14.4"/>
      <rect x="768.47" y="790.36" width="15.65" height="14.53"/>
      <path d="M767.72,755.04c0,8.14-3.01,12.27-8.89,12.27h-29.18c1.38-3.88,2.13-8.02,2.13-12.65v-27.3h-17.66v27.93c0,8.02-3.01,12.02-8.89,12.02h-53.6c1.5-3.88,2.25-8.14,2.25-12.77v-27.18h-17.66v28.68c0,7.51-3.01,11.27-8.89,11.27h-11.15c1.38-3.76,2.13-8.02,2.13-12.65v-27.3h-17.53v28.68c0,7.51-3.01,11.27-8.89,11.27h-9.39c.13-1.63.25-3.26.25-5.01v-4.13c.13-1.13.13-2.38.13-3.51v-27.3h-.13v-.13h-17.66v33.44c0,7.64-1.63,13.9-5.01,19.04-4.01,5.89-9.64,8.89-16.91,8.89s-13.03-3.01-16.91-8.89c-3.38-5.13-5.13-11.4-5.13-19.04v-33.44h-17.53v35.07c0,12.15,3.76,22.17,11.4,30.31,7.64,8.14,17.03,12.27,28.18,12.27,11.65-.13,21.17-4.38,28.68-12.9,2.13-2.5,4.01-5.14,5.64-7.89h185.1c7.26,0,13.02-2.5,17.16-7.64,3.63-4.38,5.51-9.89,5.51-16.53v-32.56h-17.53v27.68Z"/>
      <rect x="744.92" y="790.36" width="15.53" height="14.53"/>
      <path d="M812.93,727.37v46.71c0,11.02-5.76,16.53-17.28,16.53v14.15c12.02,0,20.79-2.38,26.18-7.26,5.89-5.13,8.77-13.4,8.77-24.92v-45.21h-17.66Z"/>
    </g>
    <g>
      <path d="M0,663.9v-96.97h77.46v17.24H21.2v21.63h49.76v17.1H21.2v23.61h57.11v17.39H0Z"/>
      <path d="M96.54,663.9v-96.97h39.58c10.08,0,18.66,1.74,25.73,5.23,7.07,3.49,12.51,8.79,16.33,15.9,3.82,7.12,5.72,16.23,5.72,27.35s-1.91,20.12-5.72,27.28c-3.82,7.16-9.26,12.49-16.33,15.97-7.07,3.49-15.64,5.23-25.73,5.23h-39.58ZM117.61,646.51h18.38c4.24,0,8.01-.61,11.31-1.84,3.3-1.22,6.03-3.04,8.2-5.44,2.17-2.4,3.82-5.42,4.95-9.05,1.13-3.63,1.7-7.85,1.7-12.65v-4.24c0-4.81-.57-9.02-1.7-12.65-1.13-3.63-2.78-6.64-4.95-9.05-2.17-2.4-4.9-4.24-8.2-5.51-3.3-1.27-7.07-1.91-11.31-1.91h-18.38v62.34Z"/>
      <path d="M242.98,665.59c-8.86,0-16.47-1.41-22.83-4.24-6.36-2.83-11.24-7.09-14.63-12.79-3.39-5.7-5.09-12.79-5.09-21.27v-60.36h21.2v59.79c0,6.98,1.84,12.32,5.51,16.04,3.68,3.72,8.95,5.58,15.83,5.58s12.18-1.86,15.9-5.58,5.58-9.07,5.58-16.04v-59.79h21.2v60.36c0,8.48-1.7,15.57-5.09,21.27-3.39,5.7-8.27,9.97-14.63,12.79-6.36,2.83-14.02,4.24-22.97,4.24Z"/>
      <path d="M350.13,665.59c-10.08,0-18.71-1.77-25.87-5.3-7.16-3.53-12.6-9.02-16.33-16.47-3.72-7.44-5.58-16.91-5.58-28.41,0-16.96,4.17-29.56,12.51-37.81,8.34-8.24,20.09-12.37,35.27-12.37,8.29,0,15.74,1.41,22.33,4.24,6.59,2.83,11.8,7.07,15.62,12.72,3.82,5.65,5.72,12.77,5.72,21.34h-21.2c0-4.52-.92-8.34-2.76-11.45-1.84-3.11-4.43-5.49-7.77-7.14-3.35-1.65-7.23-2.47-11.66-2.47-6.03,0-11,1.18-14.91,3.53-3.91,2.36-6.78,5.82-8.62,10.39-1.84,4.57-2.76,10.15-2.76,16.75v4.38c0,6.79.94,12.46,2.83,17.03,1.88,4.57,4.74,8.01,8.55,10.32,3.82,2.31,8.74,3.46,14.77,3.46,4.71,0,8.81-.8,12.3-2.4,3.49-1.6,6.17-3.96,8.06-7.07,1.88-3.11,2.83-6.93,2.83-11.45h20.35c0,8.58-1.86,15.69-5.58,21.34-3.72,5.65-8.88,9.87-15.48,12.65-6.6,2.78-14.14,4.17-22.62,4.17Z"/>
      <path d="M399.89,663.9l37.32-96.97h26.01l37.32,96.97h-22.76l-6.93-19.08h-42.26l-6.93,19.08h-21.77ZM434.66,627.85h30.11l-8.62-23.89c-.38-1.04-.83-2.28-1.34-3.75-.52-1.46-1.06-3.09-1.63-4.88-.57-1.79-1.11-3.56-1.63-5.3-.52-1.74-1.01-3.32-1.48-4.74h-.85c-.47,1.79-1.08,3.89-1.84,6.29-.75,2.4-1.51,4.71-2.26,6.93-.76,2.22-1.37,4.03-1.84,5.44l-8.62,23.89Z"/>
      <path d="M524.13,663.9v-79.3h-31.1v-17.67h83.54v17.67h-31.24v79.3h-21.2Z"/>
      <path d="M590.85,663.9v-96.97h21.06v96.97h-21.06Z"/>
      <path d="M678.63,665.59c-10.27,0-19.13-1.84-26.57-5.51-7.44-3.68-13.15-9.23-17.1-16.68-3.96-7.44-5.94-16.77-5.94-27.99s1.98-20.8,5.94-28.2c3.96-7.4,9.66-12.91,17.1-16.54,7.44-3.63,16.3-5.44,26.57-5.44s19.39,1.82,26.79,5.44c7.4,3.63,13.08,9.14,17.03,16.54,3.96,7.4,5.94,16.8,5.94,28.2s-1.98,20.54-5.94,27.99c-3.96,7.45-9.64,13-17.03,16.68-7.4,3.68-16.33,5.51-26.79,5.51ZM678.63,648.35c4.62,0,8.67-.66,12.16-1.98,3.49-1.32,6.41-3.3,8.76-5.94,2.35-2.64,4.15-5.87,5.37-9.68,1.22-3.82,1.84-8.17,1.84-13.07v-4.38c0-4.99-.61-9.42-1.84-13.29-1.23-3.86-3.02-7.09-5.37-9.68-2.36-2.59-5.28-4.55-8.76-5.87-3.49-1.32-7.54-1.98-12.16-1.98s-8.53.66-12.01,1.98c-3.49,1.32-6.41,3.28-8.76,5.87-2.36,2.59-4.12,5.82-5.3,9.68-1.18,3.87-1.77,8.29-1.77,13.29v4.38c0,4.9.59,9.26,1.77,13.07,1.18,3.82,2.94,7.05,5.3,9.68,2.35,2.64,5.28,4.62,8.76,5.94,3.49,1.32,7.49,1.98,12.01,1.98Z"/>
      <path d="M745.49,663.9v-96.97h19.36l39.01,52.3c.57.66,1.27,1.58,2.12,2.76.85,1.18,1.65,2.33,2.4,3.46.75,1.13,1.27,2.03,1.55,2.69h.71v-61.21h19.93v96.97h-19.37l-39.86-53.57c-.94-1.32-1.93-2.78-2.97-4.38-1.04-1.6-1.79-2.83-2.26-3.68h-.71v61.63h-19.93Z"/>
    </g>
  </g>
  <polygon class="cls-4" points="474.26 298.84 474.26 352.54 379.46 352.54 379.46 298.84 349.83 298.84 349.83 523.82 379.46 523.82 379.46 468.27 474.26 468.27 474.26 523.82 503.89 523.82 503.89 298.84 474.26 298.84"/>
  <polygon class="cls-4" points="494.16 57.69 494.16 26.13 447.74 26.13 431.04 26.13 359.56 26.13 359.56 242.41 431.04 242.41 447.74 242.41 494.16 242.41 494.16 210.85 447.74 210.85 447.74 150.05 494.16 150.05 494.16 118.49 447.74 118.49 447.74 57.69 494.16 57.69"/>
  <path class="cls-4" d="M232.75,244.04l-37.82-88.1c10.32-5.8,18.19-14.22,23.62-25.28,5.43-11.06,8.15-23.78,8.15-38.16,0-13.53-2.27-25.49-6.79-35.91-4.53-10.41-11.36-18.52-20.5-24.31-9.14-5.8-20.59-8.7-34.35-8.7H62.97v221.38h169.97v-.92h-.2Z"/>
  <polygon class="cls-4" points="608.64 238.99 688.02 238.99 688.02 218.72 726.31 218.72 726.31 242.41 802.88 242.41 717.3 26.13 697.03 26.13 608.64 238.99"/>
  <path class="cls-4" d="M231.01,440.96c-11.64,28.16-39.38,47.99-71.75,47.99v-155.23c32.37,0,60.1,19.82,71.75,47.99h25.74c-12.99-47.52-56.47-82.45-108.11-82.45-61.9,0-112.08,50.18-112.08,112.08s50.18,112.08,112.08,112.08c51.64,0,95.12-34.93,108.11-82.45h-25.74Z"/>
  <g>
    <path class="cls-4" d="M750.81,476.49h42.61c-.17-5.86.34-11.91,1.65-16.49h-137.87c-2.2,0-4.31,1.47-5.87,4.09-1.65,2.69-2.58,6.47-2.58,10.38,0,8,3.8,14.47,8.45,14.47h137.82c-.51-1.89-.93-4.09-1.18-6.35h-43.03c-1.18,0-2.11-1.34-2.11-3.05s.93-3.05,2.11-3.05Z"/>
    <path class="cls-4" d="M655.09,417.43h-37.2c-.25,3.05-.72,5.92-1.39,8.37h137.82c2.2,0,4.31-1.47,5.87-4.09,1.65-2.69,2.58-6.47,2.58-10.38,0-8-3.8-14.47-8.45-14.47h-137.82c1.14,4.09,1.69,9.28,1.69,14.47h36.91c1.18,0,2.11,1.34,2.11,3.05s-.93,3.05-2.11,3.05Z"/>
    <path class="cls-4" d="M731.1,439.85h23.22c9.33,0,16.89-12.76,16.89-28.52,0-7.76-1.77-14.96-5.07-20.28-3.17-5.31-7.35-8.24-11.82-8.24h-145.68c-1.14,0-2.11,1.83-2.11,3.97s.97,3.97,2.11,3.97h145.68c6.97,0,12.67,9.22,12.67,20.58,0,5.44-1.27,10.57-3.59,14.41-2.36,3.91-5.66,6.17-9.08,6.17h-145.68c-1.14,0-2.11,1.83-2.11,3.97s.97,3.97,2.11,3.97h122.45Z"/>
    <path class="cls-4" d="M802.88,453.83c1.14,0,2.11-1.83,2.11-3.97s-.97-3.97-2.11-3.97h-145.68c-9.33,0-16.89,12.76-16.89,28.52,0,7.76,1.77,14.96,5.07,20.28,3.17,5.31,7.35,8.24,11.82,8.24h145.68c1.14,0,2.11-1.83,2.11-3.97s-.97-3.97-2.11-3.97h-145.68c-6.97,0-12.67-9.22-12.67-20.58,0-5.44,1.27-10.57,3.59-14.41,2.36-3.91,5.66-6.17,9.08-6.17h145.68Z"/>
    <path class="cls-4" d="M728.27,346.22h65.15c.13-4.52.63-8.92,1.65-12.46h-137.87c-2.2,0-4.31,1.47-5.87,4.09-1.22,2.02-2.03,4.58-2.41,7.45-.08.92-.17,1.95-.17,2.99,0,8,3.8,14.47,8.45,14.47h137.82c-.84-2.99-1.35-6.6-1.56-10.38h-65.2c-1.18,0-2.11-1.34-2.11-3.05s.93-3.11,2.11-3.11Z"/>
    <path class="cls-4" d="M802.88,368.82h-145.68c-6.97,0-12.67-9.22-12.67-20.58,0-1.34.08-2.75.25-4.03.51-3.97,1.65-7.57,3.38-10.44,2.36-3.91,5.66-6.17,9.08-6.17h145.64c1.14,0,2.11-1.83,2.11-3.97s-.97-3.91-2.11-3.91h-145.68c-9.33,0-16.89,12.76-16.89,28.52,0,7.76,1.77,14.96,5.07,20.28,3.17,5.31,7.35,8.24,11.82,8.24h145.68c1.14,0,2.11-1.83,2.11-3.97s-.97-3.97-2.11-3.97Z"/>
  </g>
</svg>
