<?xml version="1.0" encoding="UTF-8"?>
<svg id="Layer_1" data-name="Layer 1" xmlns="http://www.w3.org/2000/svg" viewBox="0 0 798.03 369.79">
  <defs>
    <style>
      .cls-1 {
        fill: #b48730;
      }

      .cls-2 {
        fill: #0a1e3e;
      }
    </style>
  </defs>
  <path class="cls-1" d="M645.03.01l-.5,100.25,17.27.09v170.42h-46s-.01-170.15-.01-170.15l15.25-.29V0s-151.01.01-151.01.01l-.25,100.15,24.48.13v198.29l67.9,71.21,133.11-.07,67.52-71.26V100.28s24.95-.05,24.95-.05l.29-100.23h-153ZM785.49,88.35l-24.69.12v203.99s-62.54,65.24-62.54,65.24l-119.3.09-62.69-65.33V88.58l-24.47-.22-.02-76.37h126.26s-.01,76.34-.01,76.34l-14.53.22v186.75s7,7.45,7,7.45l56.19.03,7.1-7.35V88.54s-15.99-.23-15.99-.23l-.03-76.28,127.74-.05-.02,76.37Z"/>
  <path class="cls-1" d="M137.02,100.23h45.99v23.29s111.03.02,111.03.02V0H0l.2,100.49,25.61.25-.04,169.63-25.65.51v98.9h160.69s-.05-99.01-.05-99.01h-23.74s.04-32.24.04-32.24h81.98v-96.3l-82.01.02v-42.02ZM206.81,226.01l-81.7-.03-.11,56.77,24.04.07v74.96H12.02v-74.96l25.78-.1V88.67l-25.78-.29V11.99s269.79-.01,269.79-.01l-.06,99.52-85.46-.07-.04-22.95h-71.23s0,65.78,0,65.78l81.78-.02v71.77Z"/>
  <path class="cls-1" d="M467.74,100.24l.29-100.24h-161l-.25,100.16,25.26.11v170.46l-25.25.12v98.7h160.77s0-98.66,0-98.66l-24.55-.16V100.27l24.72-.03ZM455.74,282.77l.08,74.99-136.56.02v-74.9l24.78-.15V88.48s-25.24-.1-25.24-.1l-.02-76.39h137.04s-.08,76.46-.08,76.46l-24.71.02v194.27s24.71.03,24.71.03Z"/>
  <polygon class="cls-2" points="657.77 12.03 785.51 11.98 785.49 88.35 760.8 88.47 760.79 292.46 698.26 357.7 578.96 357.79 516.27 292.46 516.27 88.58 491.8 88.36 491.78 11.99 618.04 11.98 618.03 88.33 603.5 88.55 603.51 275.3 610.5 282.75 666.69 282.78 673.79 275.43 673.78 88.54 657.8 88.31 657.77 12.03"/>
  <polygon class="cls-2" points="125.11 225.98 125 282.75 149.04 282.82 149.04 357.78 12.02 357.78 12.02 282.82 37.8 282.72 37.8 88.67 12.02 88.38 12.03 11.99 281.81 11.98 281.75 111.5 196.29 111.43 196.25 88.48 125.02 88.47 125.02 154.26 206.8 154.24 206.81 226.01 125.11 225.98"/>
  <polygon class="cls-2" points="455.82 357.76 319.26 357.78 319.26 282.88 344.04 282.73 344.03 88.48 318.8 88.38 318.78 11.99 455.82 11.98 455.74 88.45 431.03 88.47 431.02 282.74 455.74 282.77 455.82 357.76"/>
</svg>
