<?xml version="1.0" encoding="UTF-8"?>
<svg id="Layer_1" data-name="Layer 1" xmlns="http://www.w3.org/2000/svg" viewBox="0 0 199.84 433.13">
  <defs>
    <style>
      .cls-1 {
        fill: #89c766;
      }

      .cls-2 {
        fill: #1161ae;
      }
    </style>
  </defs>
  <g id="surface1">
    <path class="cls-2" d="M8.65,367.06c4.32-4.56,9.87-6.84,16.61-6.84,2.7,0,5.37.53,8.06,1.53,2.7.99,4.35,1.5,5.02,1.5s1.26-.25,1.71-.73c.41-.49.77-1.23,1.04-2.23h1.81v15.28h-1.64c-1.58-3.3-3.19-5.93-4.83-7.84-3.05-3.53-6.52-5.3-10.4-5.3-4.23,0-7.31,1.82-9.22,5.49-1.93,3.65-2.93,8.79-2.93,15.45,0,5.42.92,10.29,2.7,14.57,1.81,4.27,5.29,6.4,10.43,6.4,2.79,0,4.67-.57,5.63-1.74.55-.66.83-1.68.84-3v-6.93c0-1.99-.63-3.28-1.83-3.89-.8-.39-2.38-.57-4.81-.64v-1.65h22.41v1.65c-2.25.1-3.74.55-4.46,1.39-.73.8-1.09,2.34-1.09,4.59v8.31c-1.46.92-3.81,1.83-7.04,2.69-3.23.9-6.84,1.36-10.86,1.36-7.22,0-13.03-2.3-17.37-6.86-4.02-4.3-6.09-9.67-6.09-16.08s2.13-12,6.33-16.47"/>
    <path class="cls-2" d="M82.36,360.61v1.67c-2.51.07-4.21.46-5.07,1.18-.84.69-1.27,2.31-1.27,4.83v21.85c0,3.33.41,5.91,1.2,7.71,1.41,3.35,4.14,5.02,8.19,5.02,5.04,0,8.4-1.85,10.19-5.6.97-2,1.44-4.87,1.44-8.58v-19.99c0-2.31-.41-3.93-1.29-4.79-.85-.91-2.53-1.46-5.07-1.64v-1.67h14.37v1.67c-2.07.38-3.46.9-4.14,1.48-.66.6-.99,1.93-.99,4.05v20.88c0,5.57-1.33,9.87-4.02,12.88-2.69,3.02-6.9,4.53-12.65,4.53-7.5,0-12.63-2.25-15.42-6.75-1.46-2.38-2.18-5.46-2.18-9.22v-21.85c0-2.48-.34-4.05-.97-4.67-.67-.63-2.11-1.06-4.41-1.33v-1.67h22.09"/>
    <path class="cls-2" d="M116.09,390.3h1.89c1.05,4.87,2.76,8.43,5.14,10.62,2.38,2.27,5.09,3.33,8.16,3.33s5.11-.76,6.37-2.25c1.25-1.53,1.88-3.15,1.88-4.83,0-1.95-.66-3.56-1.96-4.79-.9-.83-2.66-1.83-5.29-3.16l-4.24-2.09c-4.21-2.1-7.18-4.16-8.9-6.21-1.72-2.03-2.6-4.55-2.6-7.57,0-3.18,1.15-6.16,3.43-8.93,2.3-2.76,5.81-4.14,10.54-4.14,2.39,0,4.72.35,6.94,1.08,2.25.71,3.56,1.09,3.89,1.09.71,0,1.22-.18,1.48-.6.27-.43.52-.97.67-1.65h1.96v14.22h-1.81c-.91-3.29-2.46-6.14-4.65-8.51-2.21-2.38-4.87-3.58-8.02-3.58-2.21,0-3.95.62-5.28,1.82-1.27,1.18-1.92,2.67-1.92,4.38,0,2.06.63,3.61,1.83,4.62,1.2,1.04,3.84,2.58,7.95,4.58l4.91,2.46c2.21,1.06,3.93,2.28,5.25,3.58,2.39,2.49,3.63,5.47,3.63,9.01,0,3.3-1.32,6.41-3.92,9.36-2.62,2.91-6.77,4.37-12.51,4.37-1.33,0-2.67-.14-4.05-.39-1.33-.21-2.65-.59-3.99-1.11l-1.26-.49c-.31-.1-.6-.14-.88-.18-.25-.08-.48-.1-.69-.1-.67,0-1.15.18-1.4.59s-.48.95-.67,1.68h-1.89v-16.21"/>
    <path class="cls-2" d="M158.46,361.27h39.36l.04,13.2h-1.88c-.63-4.73-2.37-7.88-5.29-9.56-1.62-.91-4.07-1.43-7.33-1.51v34.42c0,2.41.41,4,1.23,4.79.87.78,2.62,1.19,5.26,1.19v1.65h-23.3v-1.65c2.55,0,4.26-.41,5.08-1.19.85-.81,1.3-2.41,1.3-4.79v-34.42c-3.22.08-5.65.6-7.35,1.51-3.15,1.71-4.9,4.88-5.3,9.56h-1.92l.1-13.2"/>
    <path class="cls-2" d="M97.96,0v111.89c-66.06,60.26-61.68,77.15-61.68,77.15,19.54-34.84,52.99-62.65,61.68-70.29v22.2c-9.53,5.72-47.07,32.16-60.65,74.28,0,0,31.38-51.86,60.65-66.09v13.11c-9.6,7.11-47.49,37.71-59.98,84.75,0,0,35.33-63.92,59.98-73.93v178.56s-5.4-1.9-9.15-.88c-8.01,2.17-15.28-1.85-15.28-1.85,0,0-73.52-48.32-73.52-124.84C0,137.7,87.33,56.27,89.31,51.84c1.97-4.44,1.5-15.82,1.5-15.82,1.97-2.46,2.45-5.43,2.45-5.43V0h4.7"/>
    <path class="cls-1" d="M104.64,351.63s2.79-1.81,6.73-.99c17.17,3.57,49.06-4.62,69.49-60.66,17.36-47.7,9.13-103.91-26.17-136.97,0,0,25.4,37.04,26.17,66.13.73,29.14-22.21,33.07-28.62,35.76-6.41,2.76-24.27,12.15-27.15,38-.73,6.68,2.98,14.08,1.25,21.23-1.74,7.19-11.11,11.37-14.81,16.04-3.7,4.69-5.91,6.68-6.66,18.28l-.22,3.18"/>
    <path class="cls-2" d="M104.64,40.97l34.26,44.9v8.65l-34.26-38.25v-15.3"/>
    <path class="cls-2" d="M104.64,90.8v-23.18s70.04,62.44,86.08,100.43c16.04,38.03,6.65,77.01,3.7,90.57,0,0,7.91-59.23-23.16-99.67-23.82-31-47.13-54.57-63.94-66.13l-2.67-2.02"/>
    <path class="cls-2" d="M1.97,351.7h195.88v3.88H1.97v-3.88"/>
    <path class="cls-2" d="M1.97,411.62h195.88v3.93H1.97v-3.93"/>
    <path class="cls-2" d="M3.21,428.96h.48c.25,1.22.69,2.13,1.26,2.67.59.57,1.25.84,1.99.84s1.26-.18,1.57-.57c.31-.36.46-.78.46-1.2,0-.48-.17-.88-.49-1.19-.21-.21-.64-.48-1.29-.78l-1.04-.53c-1.04-.52-1.76-1.04-2.2-1.55-.43-.5-.63-1.15-.63-1.89,0-.81.28-1.55.84-2.24s1.43-1.05,2.6-1.05c.59,0,1.16.1,1.71.28.56.18.87.27.95.27.18,0,.31-.06.38-.15s.13-.21.15-.39h.48v3.57h-.45c-.21-.83-.59-1.54-1.13-2.14s-1.19-.91-1.96-.91c-.55,0-.98.15-1.3.46-.31.29-.46.66-.46,1.09,0,.52.14.91.45,1.16.28.25.92.64,1.95,1.15l1.2.6c.55.28.98.57,1.3.91.59.62.88,1.36.88,2.24,0,.83-.31,1.61-.95,2.34s-1.68,1.09-3.09,1.09c-.32,0-.64-.03-.98-.08-.32-.06-.66-.15-.99-.28l-.31-.11c-.07-.01-.15-.03-.21-.06-.07,0-.13-.01-.17-.01-.17,0-.28.04-.35.14s-.11.24-.17.41h-.48v-4.06"/>
    <path class="cls-2" d="M23.79,432.37c.46-.01.78-.06,1.01-.17.32-.17.49-.49.49-.97v-7.98c0-.48-.15-.8-.46-.95-.2-.1-.55-.15-1.04-.18v-.42h5.74v.42c-.52.03-.87.08-1.06.17-.31.17-.48.49-.48.97v7.98c0,.45.13.76.39.91.24.15.63.22,1.15.22v.42h-5.74v-.42"/>
    <path class="cls-2" d="M41.98,432.37c.62-.01.99-.13,1.16-.35.18-.21.27-.55.27-.95v-7.77c-.5-.56-.81-.9-.92-.98-.13-.1-.28-.17-.49-.2v-.42h3.47l5.65,6.89h.08v-4.86c0-.55-.1-.95-.29-1.18-.21-.24-.6-.38-1.2-.43v-.42h3.51v.42c-.52.08-.85.21-1.04.34-.17.15-.27.48-.27.98v9.69h-.45l-7.22-8.8h-.13v6.45c0,.49.07.84.22,1.05.21.34.66.52,1.34.55v.42h-3.71v-.42"/>
    <path class="cls-2" d="M73.79,421.89c.7.27,1.08.39,1.16.39.21,0,.36-.08.5-.25.13-.17.2-.34.24-.52h.45v3.84h-.42c-.41-.83-.8-1.48-1.22-1.97-.76-.87-1.62-1.32-2.6-1.32-1.09,0-1.86.48-2.32,1.43-.46.94-.7,2.21-.7,3.81,0,1.18.14,2.16.42,2.9.49,1.43,1.43,2.13,2.81,2.13.83,0,1.61-.22,2.34-.7.41-.27.9-.7,1.47-1.3l.49.41c-.64.71-1.22,1.22-1.69,1.54-.87.57-1.82.87-2.87.87-1.62,0-2.97-.49-4.06-1.46-1.22-1.05-1.82-2.48-1.82-4.28s.57-3.23,1.74-4.32c1.08-1.04,2.42-1.55,4-1.55.69,0,1.37.13,2.09.38"/>
    <path class="cls-2" d="M89.29,432.79v-.42c.48-.01.8-.08,1.01-.2.29-.17.45-.48.45-.94v-7.98c0-.46-.15-.78-.48-.95-.18-.1-.5-.15-.98-.18v-.42h9.46v3.32h-.43c-.2-1.06-.56-1.81-1.05-2.18-.5-.39-1.4-.59-2.72-.59-.49,0-.81.06-.95.15-.13.11-.2.31-.2.63v3.79c.91,0,1.55-.15,1.89-.5.32-.34.57-.98.76-1.89h.42v5.47h-.42c-.13-.92-.35-1.6-.73-1.96-.35-.39-1.01-.57-1.92-.57v3.98c0,.35.08.59.25.7.2.13.56.2,1.11.2,1.05,0,1.89-.2,2.56-.6.66-.41,1.25-1.16,1.75-2.27h.46l-.67,3.42h-9.57"/>
    <path class="cls-2" d="M127.93,432.41c1.75-1.89,2.88-3.22,3.42-3.96.81-1.12,1.22-2.11,1.22-2.98,0-.5-.15-.99-.48-1.43-.32-.46-.8-.67-1.46-.67-.57,0-1.06.2-1.46.6-.22.21-.42.5-.57.88h-.45c.36-1.15.87-1.97,1.5-2.53.66-.53,1.39-.81,2.18-.81.76,0,1.44.27,2.07.78.62.53.94,1.3.94,2.32,0,.52-.15,1.06-.45,1.62-.29.57-.78,1.18-1.47,1.83l-2.52,2.38v.14h2.34c.8,0,1.34-.07,1.58-.21.25-.13.5-.48.76-1.06h.39l-.74,3.47h-6.8v-.38"/>
    <path class="cls-2" d="M149.35,422.79c.69-.85,1.5-1.27,2.38-1.27,1.04,0,1.92.53,2.63,1.58.71,1.06,1.08,2.44,1.08,4.07,0,1.92-.41,3.43-1.23,4.49-.69.91-1.51,1.36-2.46,1.36-.67,0-1.26-.2-1.72-.59-.48-.41-.88-.9-1.22-1.53-.29-.55-.49-1.13-.6-1.83-.07-.39-.13-.97-.17-1.74,0-1.95.43-3.47,1.32-4.55M150.9,431.87c.2.46.48.7.85.7.48,0,.8-.43.97-1.3.08-.48.14-1.19.14-2.11v-3.78c0-1.34-.1-2.24-.28-2.72-.2-.46-.48-.71-.84-.71s-.66.25-.85.73c-.18.48-.28,1.37-.28,2.7v3.78c.01,1.33.1,2.25.29,2.72"/>
    <path class="cls-2" d="M169.35,422.79c.69-.85,1.5-1.27,2.38-1.27,1.04,0,1.92.53,2.62,1.58.73,1.06,1.08,2.44,1.08,4.07,0,1.92-.39,3.43-1.2,4.49-.7.91-1.53,1.36-2.48,1.36-.69,0-1.25-.2-1.72-.59-.48-.41-.88-.9-1.22-1.53-.29-.55-.49-1.13-.62-1.83-.07-.39-.13-.97-.15-1.74,0-1.95.43-3.47,1.32-4.55M170.9,431.87c.2.46.48.7.85.7.48,0,.8-.43.97-1.3.1-.48.15-1.19.15-2.11v-3.78c0-1.34-.11-2.24-.31-2.72-.2-.46-.46-.71-.83-.71s-.64.25-.85.73c-.18.48-.28,1.37-.28,2.7v3.78c0,1.33.11,2.25.29,2.72"/>
    <path class="cls-2" d="M187.93,432.41c1.75-1.89,2.9-3.22,3.4-3.96.83-1.12,1.23-2.11,1.23-2.98,0-.5-.17-.99-.48-1.43-.31-.46-.8-.67-1.46-.67-.57,0-1.06.2-1.46.6-.22.21-.41.5-.57.88h-.45c.36-1.15.87-1.97,1.51-2.53.63-.53,1.36-.81,2.16-.81s1.46.27,2.09.78c.62.53.94,1.3.94,2.32,0,.52-.15,1.06-.45,1.62-.29.57-.8,1.18-1.47,1.83l-2.52,2.38v.14h2.34c.81,0,1.34-.07,1.58-.21.25-.13.5-.48.76-1.06h.39l-.74,3.47h-6.8v-.38"/>
  </g>
</svg>
