<?xml version="1.0" encoding="UTF-8"?>
<svg id="Layer_2" data-name="Layer 2" xmlns="http://www.w3.org/2000/svg" viewBox="0 0 259.49 449.59">
  <defs>
    <style>
      .cls-1 {
        fill: #ffcf00;
      }

      .cls-2 {
        fill: #3e66ad;
      }
    </style>
  </defs>
  <g id="Layer_1-2" data-name="Layer 1">
    <g>
      <g>
        <path class="cls-2" d="M128.93,291.1c-4.95,0-9.83-1.29-14.13-3.74l-75.46-42.97c-11.14-6.34-18.02-18.18-18.02-31V41.7c0-8.66,5.34-16.39,13.41-19.55,16.35-6.39,47.68-15.43,94.2-15.43s77.86,9.04,94.2,15.43c8.07,3.16,13.41,10.89,13.41,19.55v171.69c0,12.82-6.88,24.65-18.02,31l-75.46,42.97c-4.3,2.45-9.18,3.74-14.13,3.74Z"/>
        <path class="cls-1" d="M128.93,297.82c-6.11,0-12.15-1.6-17.46-4.62l-75.46-42.97c-13.21-7.52-21.41-21.64-21.41-36.84V41.7c0-11.48,6.94-21.61,17.68-25.81C50.81,8.64,82.62,0,128.93,0s78.11,8.64,96.65,15.89c10.74,4.2,17.68,14.33,17.68,25.81v171.69c0,15.2-8.21,29.31-21.41,36.84l-75.46,42.97c-5.31,3.02-11.34,4.62-17.46,4.62ZM128.93,13.44c-46.54,0-77.46,9.38-91.75,14.97-5.55,2.17-9.13,7.39-9.13,13.29v171.69c0,10.38,5.6,20.02,14.62,25.16l75.46,42.97c6.57,3.75,15.04,3.74,21.61,0l75.46-42.97c9.02-5.14,14.62-14.78,14.62-25.16V41.7c0-5.9-3.59-11.12-9.13-13.29-14.29-5.59-45.22-14.97-91.76-14.97Z"/>
      </g>
      <path class="cls-1" d="M165.18,40.83v74.43h-72.51V40.83c0-3.66-3.25-6.49-6.87-6-13.21,1.79-24.37,4.25-33.51,6.8-5.27,1.47-8.91,6.24-8.91,11.71v158.25c0,5.78,3.1,11.12,8.12,13.98l32.29,18.39c3.96,2.26,8.88-.6,8.88-5.16v-74.24h72.51v74.24c0,4.56,4.92,7.42,8.88,5.16l32.29-18.39c5.02-2.86,8.12-8.2,8.12-13.98V53.34c0-5.47-3.64-10.24-8.91-11.71-9.14-2.55-20.3-5.01-33.51-6.8-3.63-.49-6.87,2.34-6.87,6Z"/>
      <g>
        <path class="cls-2" d="M0,352.58h8.54v19.64h23.17v-19.64h8.54v48.37h-8.54v-21.41H8.54v21.41H0v-48.37Z"/>
        <path class="cls-2" d="M51.61,352.71h29.13v7.32h-20.59v12.19h19.92v7.32h-19.92v14.09h21.2v7.32h-29.74v-48.23Z"/>
        <path class="cls-2" d="M90.69,352.85l1.02-.07c3.39-.27,8.74-.41,12.06-.41,6.44,0,10.64.88,13.95,3.12,3.66,2.44,5.76,6.5,5.76,11.24,0,4.2-1.63,7.99-4.47,10.43-1.36,1.15-2.57,1.83-4.95,2.71,4.61,6.23,12.6,15.85,17.27,20.8l.41.41h-11.45c-.95-1.02-1.29-1.49-2.57-3.05-2.78-3.45-3.52-4.34-6.23-7.99-2.78-3.66-4-5.28-5.56-7.52l-.61-.81c-1.15,0-2.03.07-2.57.07-1.02,0-1.83-.07-3.52-.14v19.31h-8.54v-48.1ZM99.23,374.8h4.4c7.45,0,11.11-2.51,11.11-7.72s-3.59-7.72-10.43-7.72c-1.36,0-2.78.07-5.08.14v15.31Z"/>
        <path class="cls-2" d="M157.82,351.63c14.56,0,23.85,9.69,23.85,24.93s-9.55,25.47-24.52,25.47-23.85-9.62-23.85-24.73,9.62-25.68,24.52-25.68ZM157.55,394.65c9.28,0,14.9-6.71,14.9-17.75s-5.56-17.88-14.84-17.88-15.11,6.71-15.11,17.82,5.69,17.82,15.04,17.82Z"/>
        <path class="cls-2" d="M191.14,352.71h29.13v7.32h-20.59v12.19h19.92v7.32h-19.92v14.09h21.2v7.32h-29.74v-48.23Z"/>
        <path class="cls-2" d="M228.46,389.63c4.34,3.46,8.47,5.01,13.28,5.01,5.21,0,8.54-2.44,8.54-6.1,0-1.96-.81-3.59-2.64-5.08-.95-.88-2.91-1.96-6.1-3.52-4.95-2.44-7.38-3.93-9.28-5.89-2.1-2.23-3.32-5.28-3.32-8.54,0-8.2,6.91-13.75,17.07-13.75,4.34,0,8.06.81,12.46,2.85v8.4c-4-2.91-7.59-4.27-11.99-4.27-5.21,0-8.81,2.37-8.81,5.76,0,2.03.88,3.52,2.98,5.15,1.02.61,2.44,1.36,5.96,3.12,4.88,2.3,7.25,3.86,9.35,5.96,2.3,2.37,3.52,5.69,3.52,9.28,0,8.47-6.98,14.02-17.55,14.02-4.74,0-8.87-.95-13.48-3.12v-9.28Z"/>
        <path class="cls-2" d="M26.01,447.91c1.4-3.89,3.17-8.51,5.38-13.8,1.72-4.22,2.97-7.14,5.42-12.68l.44-.96h5.58l.44,1c2.05,5.02,3.37,8.43,5.06,12.88,1.6,4.37,3.01,8.31,4.74,13.44l.44,1.32h-5.7l-.2-.72c-.72-2.29-1.49-4.65-2.53-7.75l-.2-.6h-10.67l-.28.68c-.6,1.69-2.05,5.74-2.69,7.67l-.24.72h-5.38l.4-1.2ZM43.43,435.99l-.28-.96-1.12-3.33c-.2-.56-.52-1.49-.92-2.65-.64-1.93-.8-2.37-1.28-3.85-.24.72-.44,1.2-.48,1.37l-.96,2.49c-.16.32-.28.64-.6,1.52-.24.64-.52,1.41-.88,2.37-.48,1.2-.6,1.61-.72,1.97l-.4,1.08h7.67Z"/>
        <path class="cls-2" d="M79.99,447.83c-2.73,1.2-5.54,1.77-9.03,1.77-4.37,0-7.87-1.08-10.59-3.33-3.25-2.65-4.98-6.54-4.98-11.08,0-8.95,6.66-15.21,16.21-15.21,2.97,0,5.46.52,8.39,1.77v4.65c-2.69-1.49-4.9-2.05-7.83-2.05-6.98,0-11.32,4.05-11.32,10.47s4.29,10.39,11.2,10.39c2.93,0,5.3-.64,7.95-2.09v4.7Z"/>
        <path class="cls-2" d="M83.49,447.91c1.4-3.89,3.17-8.51,5.38-13.8,1.72-4.22,2.97-7.14,5.42-12.68l.44-.96h5.58l.44,1c2.05,5.02,3.37,8.43,5.06,12.88,1.6,4.37,3.01,8.31,4.74,13.44l.44,1.32h-5.7l-.2-.72c-.72-2.29-1.49-4.65-2.53-7.75l-.2-.6h-10.67l-.28.68c-.6,1.69-2.05,5.74-2.69,7.67l-.24.72h-5.38l.4-1.2ZM100.91,435.99l-.28-.96-1.12-3.33c-.2-.56-.52-1.49-.92-2.65-.64-1.93-.8-2.37-1.28-3.85-.24.72-.44,1.2-.48,1.37l-.96,2.49c-.16.32-.28.64-.6,1.52-.24.64-.52,1.41-.88,2.37-.48,1.2-.6,1.61-.72,1.97l-.4,1.08h7.67Z"/>
        <path class="cls-2" d="M115.4,420.58l.88-.04c3.01-.2,4.86-.28,6.9-.28,5.9,0,9.71.96,12.68,3.21,3.05,2.37,4.74,6.18,4.74,10.88,0,4.94-1.85,9.03-5.18,11.56-3.09,2.33-7.02,3.37-12.84,3.37-2.17,0-5.06-.12-7.18-.24v-28.45ZM120.46,444.74c1.57.12,2.41.16,3.37.16,3.85,0,6.46-.76,8.39-2.49,1.89-1.69,2.93-4.46,2.93-7.79,0-6.54-3.73-9.99-10.87-9.99-.8,0-1.85.04-2.93.08l-.88.08v19.95Z"/>
        <path class="cls-2" d="M146.39,420.54h17.26v4.33h-12.2v7.23h11.8v4.33h-11.8v8.35h12.56v4.33h-17.62v-28.57Z"/>
        <path class="cls-2" d="M168.9,447.71c.16-3.57.28-6.3.52-9.71.12-1.72.24-3.53.4-5.42.12-1.89.2-2.97.32-4.17l.6-6.86.08-1.08h5.5c1.6,0,1.97.32,2.85,2.57,1.32,3.29,3.81,10.11,5.06,13.81,1.28,3.89,1.64,5.38,1.89,8.35.24-3.05.56-4.46,1.89-8.35.68-2.09,1.69-4.94,2.69-7.58.88-2.45,1.57-4.26,1.89-5.14.64-1.65.96-2.33,1.2-2.73.4-.64,1.08-.92,2.13-.92h5.14l.12,1.08.6,6.86c.16,1.68.32,4.05.52,6.98.32,4.74.52,7.99.72,12.32l.08,1.4h-5.06l-.04-.72c-.28-7.1-.48-11.36-.88-17.9-.12-2.05-.16-3.13-.16-4.01,0-.64,0-1.53.08-2.77-.64,2.61-.84,3.29-1.56,5.22l-1.57,4.21c-.28.76-.52,1.45-1.04,3.05-1.37,3.93-2.57,7.46-3.89,11.76l-.4,1.16h-5.34l-.4-1.16c-.92-2.93-1.65-5.18-2.49-7.67-.48-1.44-.92-2.81-1.4-4.09-.52-1.6-.76-2.29-1.04-3.05l-1.56-4.21c-.72-1.97-.92-2.61-1.52-5.22.04,1.24.04,2.17.04,2.85,0,.88-.04,1.93-.16,3.93-.36,5.82-.64,11.48-.88,17.9l-.04.72h-4.94l.08-1.4Z"/>
        <path class="cls-2" d="M216.23,438.03l-.52-.72c-2.17-3.17-3.29-4.86-5.06-7.71-1.89-2.97-2.97-4.82-4.98-8.35l-.48-.8h6.02l.2.36c1.45,2.61,2.13,3.81,3.61,6.3,1.33,2.17,2.49,4.05,3.41,5.5l.44.8.6-.84c1.12-1.6,2.41-3.57,3.61-5.46,1.36-2.13,3.09-4.98,3.85-6.3l.2-.36h5.74l-.44.72c-3.09,5.18-7.02,11.12-10.64,16.13l-.52.72v11.08h-5.06v-11.08Z"/>
      </g>
    </g>
  </g>
</svg>