<?xml version="1.0" encoding="UTF-8"?>
<svg id="Layer_1" data-name="Layer 1" xmlns="http://www.w3.org/2000/svg" viewBox="0 0 371.2 419.39">
  <defs>
    <style>
      .cls-1 {
        fill: #fff;
      }

      .cls-1, .cls-2, .cls-3, .cls-4, .cls-5, .cls-6 {
        fill-rule: evenodd;
      }

      .cls-7, .cls-2 {
        fill: #231f20;
      }

      .cls-8 {
        fill: #00adee;
      }

      .cls-3 {
        fill: #e4b43a;
      }

      .cls-4 {
        fill: #6dcef5;
      }

      .cls-5 {
        fill: #ec1c24;
      }

      .cls-6 {
        fill: #00a551;
      }
    </style>
  </defs>
  <path class="cls-1" d="M345.77,214.7c1.73-2.02,3.6-4.18,4.32-5.18,20.88-28.73,21.46-69.12,21.02-68.62-2.89,3.43-5.74,6.56-8.55,9.43.27-3.1.34-6.26.34-9.07,0-8.86-.72-17.93-2.16-26.86-.22-1.44-.43-2.95-.72-4.39-1.37-7.49-3.17-14.83-5.33-21.96-.58-1.87-1.58-4.18-4.17-5.9-2.06-1.48-5.23-2.38-9.9-1.98-3.68-9.52-8.18-18.67-13.5-27.32-3.1-4.9-6.12-8.71-10.01-10.58-3.69-1.75-7.84-1.62-13.09.98-9.68-11.81-21.12-22.21-34-30.71-4.46-2.95-8.14-5.11-12.17-5.54-4.08-.35-8.16,1.09-12.92,5.46-9.64-4.5-19.85-7.97-30.5-10.21-2.02-.43-3.96-.79-5.98-1.15-2.02-.29-4.03-.58-6.12-.86-3.82-.36-7.13-.43-10.3,1.22-2.44,1.3-4.56,3.6-6.41,7.47-1.87-3.87-4.04-6.16-6.48-7.47-3.17-1.66-6.48-1.58-10.3-1.22-2.02.29-4.03.58-6.05.86-2.02.36-4.03.72-5.98,1.15-10.67,2.25-20.91,5.71-30.56,10.22-4.82-4.37-8.84-5.82-12.92-5.47-4.03.43-7.78,2.59-12.17,5.54-12.88,8.5-24.31,18.89-34.02,30.7-5.24-2.59-9.38-2.71-13.07-.97-3.96,1.87-6.98,5.69-10.01,10.58-5.32,8.65-9.82,17.8-13.5,27.32-4.72-.4-7.84.5-9.97,1.98-2.52,1.73-3.6,4.03-4.1,5.9-2.16,7.13-3.96,14.47-5.33,21.96-.29,1.44-.5,2.95-.79,4.39-1.37,8.93-2.16,18-2.16,26.86,0,2.82.21,5.97.42,9.07-2.81-2.87-5.66-6-8.55-9.43-.5-.5.14,39.89,20.95,68.62.79,1.01,2.66,3.17,4.39,5.18,1.22,1.44-2.23,1.01-11.59,1.58-.79.07,9.43,23.54,41.18,49.03.5.43-5.98.58-10.58,1.3-1.01.14,12.31,18.14,56.02,37.87.58.21-3.17,2.45-7.27,5.25-.29.22,6.7,4.03,16.42,7.99,5.23,2.14,13.39,4.85,19.78,6.67l.09.89.72,5.4.86,5.25.94,5.04,1.01,4.9,1.22,4.75,1.22,4.54,1.37,4.39,1.44,4.25,1.58,4.1,1.58,3.89,1.73,3.82,1.8,3.6,1.94,3.46,1.51,2.52.43.79,2.09,3.17,2.09,3.02,2.23,2.88,2.23,2.74,2.38,2.59,2.38,2.52,2.45,2.37,2.52,2.23,2.59,2.09,2.59,1.94,2.66,1.87,2.74,1.73,2.81,1.66,2.81,1.51,2.23,1.08,2.16-1.08,2.88-1.51,2.74-1.66,2.74-1.73,2.66-1.87,2.66-1.94,2.59-2.09,2.52-2.23,2.45-2.37,2.38-2.52,2.3-2.59,2.3-2.74,2.16-2.88,2.16-3.02,2.02-3.17.5-.79,1.51-2.52,1.87-3.46,1.8-3.6,1.73-3.82,1.66-3.89,1.58-4.1,1.44-4.25,1.37-4.39,1.15-4.54,1.15-4.75,1.08-4.9.94-5.04.79-5.25.72-5.4.09-.8c5.89-1.68,13.38-4.24,18.27-6.18,10.51-4.18,18.29-8.35,18-8.57-4.1-2.81-7.85-5.04-7.34-5.25,43.7-19.73,57.1-37.73,56.02-37.87-4.61-.72-11.09-.86-10.51-1.3,31.75-25.49,41.98-48.96,41.18-49.03-9.43-.58-12.82-.14-11.59-1.58Z"/>
  <path class="cls-8" d="M185.64,239.39h2.45l.79.07h0l.79.07h0l.72.07.07.07.72.07h.07l.72.14h0l.79.07h0l.72.14h.07l.72.22h0l.79.14h0l.72.22h.07l.72.22h0l.79.22h0l.72.22h.07l.72.22v.07l.72.22h.07l.72.29h0l.79.29h0l.72.29h.07l.72.29h0l.79.36h0l.79.29h0l.79.36h.07l.79.36h0l.79.43h.07l.79.36h0l.86.43h0l.86.36h0l.94.43h0l2.52,1.3h.07l.79.36h0l.79.43h0l.79.36h0l.72.29.07.07.72.29h0l.72.36h0l.79.29h0l.72.29h0l.72.29h0l.65.29h0l.72.29h0l.72.22h0l.72.22h0l.65.22v.07l.65.14h0l.65.22h0l.65.14h0l.65.22h0l.65.07v.07l.58.07h.07l.58.14h.07l.58.14h0l.65.07h0l.65.07h0l.65.07h0l.65.07h0l.65.07h4.03l.65-.07h0l.58-.07h0l.65-.07h0l.65-.07h0l.65-.07h0l.65-.14h0l.58-.14h.07l.58-.07h.07l.58-.14h0l.65-.22h0l.65-.14h0l.65-.22h0l.65-.14v-.07l.65-.22h0l.72-.22h0l.65-.22h0l.72-.29h0l.65-.29h0l.72-.29h0l.72-.29h0l.79-.36h0l.72-.29h0l.79-.36h0l.72-.36h0l.79-.36h0l.79-.43h0l.86-.36h0l.79-.43h0l.86-.43.94-.43h0l.86-.43h0l.87-.43h0l.86-.43h0l.86-.36h0l.79-.43h0l.86-.36h0l.79-.36h0l.79-.36h0l.79-.29h0l.79-.29v-.07l.79-.29h0l.72-.29h.07l.72-.29h0l.79-.22h0l.72-.29h0l.79-.22h0l.79-.22h0l.79-.22h0l.72-.22h.07l.72-.14h0l.79-.22h0l.72-.14h.07l.72-.14h0l.79-.07h0l.72-.14h.07l.72-.07h.07l.72-.07h0l.79-.07h.79l.79-.07h1.66l.79.07h.79l.79.07h0l.79.07h0l.72.07h.07l.72.14h0l.79.07h0l.79.14h0l.72.14h0l.79.22h0l.79.14h0l.72.22h.07l.72.22h0l.79.22h0l.79.22h0l.5.22h0l.58.14h0l.5.22h0l.58.22h0l.5.14h0l.58.22h0l.5.22h.07l.5.22h0l.58.29h0l.58.22h0l.58.22h0l.58.29.5.22,1.15.5-.43,1.15-.07.07h0l-.22.5h0l-.14.5-.22.43h0l-.22.5-.22.43h0l-.22.5h0l-.22.43h0l-.29.5h0v.07l-.58,1.15-1.15-.58-.43-.14h0l-.5-.22h0l-.5-.29h0l-.5-.22v.07l-.58-.22v-.07l-.5-.14h0l-.5-.22h0l-.5-.22h0l-.5-.14h0l-.43-.22h-.07l-.43-.14h0l-.5-.22h0l-.5-.14h0l-.65-.14v-.07l-.58-.14h0l-.72-.22h0l-.58-.14h0l-.65-.14h0l-.65-.14h0l-.58-.07h-.07l-.65-.14h0l-.58-.07h-.07l-.58-.07h0l-.65-.07h0l-.72-.07h0l-.65-.07h-.65l-.65-.07h-1.37l-.65.07h-.65l-.65.07h0l-.72.07h-.58l-.07.07-.65.07h0l-.58.07h0l-.65.14h0l-.65.07h0l-.65.14h0l-.65.14h0l-.58.14h0l-.65.22h0l-.65.14h0l-.65.22h0l-.65.22h0l-.72.29h0l-.65.22h0l-.72.29h0l-.72.29h0l-.72.29h0l-.72.29h0l-.72.29h0l-.79.36h0l-.72.36h0l-.79.36h0l-.79.36h0l-.79.36h0l-.79.43h0l-.86.43h0l-.86.43-.86.43h0l-.94.43h0l-.86.43h0l-.86.43h0l-.79.36h0l-.86.36h0l-.79.43h0l-.79.36h-.07l-.72.29h-.07l-.72.36h-.07l-.72.29h-.07l-.72.29h0l-.79.29v.07l-.79.22h0l-.72.29h0l-.79.22h0l-.79.29h0l-.72.22h-.07l-.72.22h0l-.79.22h0l-.72.14h-.07l-.72.14h0l-.79.14v.07l-.72.07h-.07l-.72.14h0l-.79.07h0l-.79.14h0l-.72.07h-.79l-.72.07h-3.31l-.72-.07h-.86l-.72-.07h-.07l-.72-.14h0l-.79-.07h0l-.72-.07-.07-.07-.72-.07h0l-.79-.14h0l-.72-.22h-.07l-.72-.14h0l-.79-.22h0l-.72-.22h-.07l-.72-.22h0l-.79-.22h0l-.72-.22v-.07l-.79-.22h0l-.72-.29h0l-.79-.29h0l-.72-.29h-.07l-.72-.29h0l-.79-.36h0l-.79-.29h-.07l-.79-.36h0l-.79-.36h0l-.86-.36v-.07l-.79-.36h-.07l-.79-.43h0l-.94-.36v-.07l-.86-.36h0l-1.3-.65h-.07l-.43-.22h0l-.79-.43h0l-.86-.36h0l-.79-.43h0l-.72-.36h-.07l-.72-.36h0l-.79-.29h0l-.72-.36h0l-.79-.29h0l-.65-.29h0l-.72-.29h-.07l-.65-.29h0l-.72-.29h0l-.72-.22h0l-.65-.29h0l-.72-.14v-.07l-.65-.14h0l-.58-.22h0l-.72-.14h0l-.58-.14-.07-.07-.58-.14h0l-.65-.07h0l-.65-.14h0l-.65-.14h0l-.65-.07h0l-.58-.07h-.07l-.58-.07h0l-.72-.07h0l-.65-.07h-2.02v-6.84h0Z"/>
  <path class="cls-1" d="M82.76,69.55l27.22,17.64c6.55-9.29,14.47-16.92,23.26-22.9,15.62-10.58,34.06-15.84,52.42-15.84s36.72,5.26,52.34,15.84c8.78,5.98,16.7,13.61,23.26,22.9l27.22-17.64c-4.25-6.05-9-11.74-14.26-16.92-22.68-22.75-54-36.86-88.56-36.86h0c-34.56,0-65.95,14.11-88.7,36.86-5.18,5.18-9.94,10.87-14.18,16.92Z"/>
  <path class="cls-4" d="M290.62,72.79l-28.87,18.72-1.58,1.01-1.08-1.58c-6.48-9.58-14.47-17.35-23.26-23.33-14.98-10.15-32.62-15.19-50.18-15.19s-35.21,5.04-50.18,15.19c-8.93,5.98-16.85,13.75-23.33,23.33l-1.08,1.58-1.66-1.01-28.87-18.72c-11.16,17.06-18.29,36.94-20.02,58.32.14-.07.22-.14.36-.22,4.18-2.23,9-3.46,13.82-3.46h0c1.58,0,3.24.14,4.82.43.29,0,.58.07.79.14.29,0,.58.07.79.14.36-7.49,3.6-14.18,8.5-19.15,5.33-5.26,12.6-8.57,20.59-8.57h0c2.66,0,5.33.36,7.92,1.08.43.14.86.29,1.22.43,1.37.43,2.74,1.01,4.1,1.66.29-.14.65-.29.94-.43,2.59-1.22,5.47-1.87,8.35-1.87h0c1.73,0,3.53.22,5.26.72.29.07.5.14.79.22-.07-.5-.07-1.08-.07-1.66h0c0-6.19,2.52-11.88,6.62-15.98s9.72-6.62,15.98-6.62h0c2.23,0,4.39.36,6.55,1.01.36.14.72.22,1.01.36h0c.94.29,1.8.65,2.66,1.08.29-.58.65-1.08,1.08-1.66.79-1.15,1.73-2.3,2.74-3.31,5.11-5.33,12.31-8.5,19.87-8.5h0c2.09,0,4.18.22,6.12.72,1.94.43,3.82,1.08,5.62,1.94,8.5,4.03,14.62,12.24,15.62,22.03,1.73-.43,3.6-.58,5.33-.58h0c6.62,0,12.67,2.74,17.06,7.13,3.96,3.96,6.62,9.43,7.06,15.41,2.59-1.94,5.9-3.1,9.29-3.1h0c2.74,0,5.4.72,7.7,2.02.29.22.65.43,1.08.72,1.08.72,2.02,1.66,2.88,2.66.22-.14.36-.29.5-.5.79-.65,1.66-1.22,2.45-1.8,4.32-2.95,9.58-4.61,14.83-4.61h0c3.38,0,6.7.72,9.79,1.94,1.01.43,2.02.94,2.95,1.44,1.8,1.01,3.46,2.23,4.97,3.6-3.17-15.62-9.36-30.24-17.86-43.2Z"/>
  <polygon class="cls-5" points="131.93 315.93 164.84 336.81 164.84 401.11 160.08 395.63 157.85 392.97 155.76 390.16 153.67 387.28 151.73 384.19 149.79 381.02 147.99 377.63 146.26 374.11 144.53 370.43 142.95 366.69 141.44 362.66 140 358.55 138.7 354.24 137.48 349.77 136.32 345.16 135.32 340.34 134.38 335.37 133.59 330.19 132.87 324.86 132.22 319.39 131.93 315.93"/>
  <polygon class="cls-2" points="185.64 294.26 183.84 295.99 181.83 297.71 179.67 299.37 177.51 300.88 175.35 302.18 173.11 303.47 170.81 304.63 168.51 305.63 166.2 306.57 163.97 307.43 161.59 308.15 159.36 308.8 157.06 309.45 154.76 309.95 152.52 310.39 150.29 310.75 148.06 311.11 145.9 311.39 143.81 311.61 141.72 311.83 139.71 311.97 137.76 312.11 135.89 312.19 134.02 312.33 133.88 312.33 169.23 334.94 169.23 334.94 185.64 334.94 201.99 334.94 201.99 334.94 237.34 312.33 237.12 312.33 235.4 312.19 233.52 312.11 231.51 311.97 229.49 311.83 227.48 311.61 225.32 311.39 223.15 311.11 221 310.75 218.76 310.39 216.46 309.95 214.23 309.45 211.92 308.8 209.62 308.15 207.32 307.43 205.01 306.57 202.71 305.63 200.48 304.63 198.17 303.47 195.94 302.18 193.71 300.88 191.55 299.37 189.46 297.71 187.37 295.99 185.64 294.26"/>
  <polygon class="cls-6" points="239.21 315.93 206.38 336.81 206.38 401.11 211.2 395.63 213.36 392.97 215.52 390.16 217.54 387.28 219.55 384.19 221.43 381.02 223.3 377.63 225.03 374.11 226.68 370.43 228.34 366.69 229.78 362.66 231.22 358.55 232.59 354.24 233.81 349.77 234.89 345.16 235.97 340.34 236.84 335.37 237.63 330.19 238.35 324.86 238.92 319.39 239.21 315.93"/>
  <path class="cls-1" d="M185.64,336.81h-17.06v67.75c5.18,4.03,11.02,8.21,17.06,11.09,5.98-2.88,11.81-7.06,16.99-11.09v-67.75h-16.99Z"/>
</svg>
